<svg height="28" viewBox="0 0 28 28" width="28" xmlns="http://www.w3.org/2000/svg"><g fill="none" fill-rule="evenodd"><path d="m0 0h28v28h-28z"/><path d="m18.3273663 16.7105887 4.0877881 4.0877881c.4464608.4464608.4464608 1.1703168 0 1.6167776s-1.1703168.4464608-1.6167776 0l-4.0877881-4.0877881c-1.7604835 1.4084783-3.9931274 2.2510501-6.4213805 2.2510501-5.67964292 0-10.2892082-4.6095653-10.2892082-10.2892082 0-5.67964292 4.60956528-10.2892082 10.2892082-10.2892082 5.6796429 0 10.2892082 4.60956528 10.2892082 10.2892082 0 2.4282531-.8425718 4.660897-2.2510501 6.4213805zm-2.2936932-.848288c1.3979605-1.4407178 2.2582526-3.4059566 2.2582526-5.5730925 0-4.42150141-3.5812161-8.00271749-8.0027175-8.00271749-4.42150141 0-8.00271749 3.58121608-8.00271749 8.00271749 0 4.4215014 3.58121608 8.0027175 8.00271749 8.0027175 2.1671359 0 4.1323747-.8602921 5.5730925-2.2582526z" fill="#333" fill-rule="nonzero" transform="translate(2.625 2.625)"/></g></svg>