<svg height="46" viewBox="0 0 46 46" width="46" xmlns="http://www.w3.org/2000/svg"><g fill="none" fill-rule="evenodd"><path d="m0 0h46v46h-46z"/><path d="m1.53333333 0h31.43333337c.8468366 0 1.5333333.68649672 1.5333333 1.53333333v.76666667c0 .84683662-.6864967 1.53333333-1.5333333 1.53333333h-31.43333337c-.84683661 0-1.53333333-.68649671-1.53333333-1.53333333v-.76666667c0-.84683661.68649672-1.53333333 1.53333333-1.53333333zm0 13.4166667h31.43333337c.8468366 0 1.5333333.6864967 1.5333333 1.5333333v.7666667c0 .8468366-.6864967 1.5333333-1.5333333 1.5333333h-31.43333337c-.84683661 0-1.53333333-.6864967-1.53333333-1.5333333v-.7666667c0-.8468366.68649672-1.5333333 1.53333333-1.5333333zm.38333334 13.4166666h30.66666663c1.0585458 0 1.9166667.8581209 1.9166667 1.9166667s-.8581209 1.9166667-1.9166667 1.9166667h-30.66666663c-1.05854577 0-1.91666667-.8581209-1.91666667-1.9166667s.8581209-1.9166667 1.91666667-1.9166667z" fill="#333" fill-rule="nonzero" transform="translate(5.75 7.666667)"/></g></svg>