<svg height="40" viewBox="0 0 40 40" width="40" xmlns="http://www.w3.org/2000/svg"><g fill="none" fill-rule="evenodd"><path d="m0 0h40v40h-40z" fill="#fff"/><path d="m1.33333333 0h27.33333337c.7363796 0 1.3333333.59695367 1.3333333 1.33333333v.66666667c0 .73637967-.5969537 1.33333333-1.3333333 1.33333333h-27.33333337c-.73637966 0-1.33333333-.59695366-1.33333333-1.33333333v-.66666667c0-.73637966.59695367-1.33333333 1.33333333-1.33333333zm0 11.6666667h27.33333337c.7363796 0 1.3333333.5969536 1.3333333 1.3333333v.6666667c0 .7363796-.5969537 1.3333333-1.3333333 1.3333333h-27.33333337c-.73637966 0-1.33333333-.5969537-1.33333333-1.3333333v-.6666667c0-.7363797.59695367-1.3333333 1.33333333-1.3333333zm.33333334 11.6666666h26.66666663c.9204746 0 1.6666667.7461921 1.6666667 1.6666667s-.7461921 1.6666667-1.6666667 1.6666667h-26.66666663c-.92047459 0-1.66666667-.7461921-1.66666667-1.6666667s.74619208-1.6666667 1.66666667-1.6666667z" fill="#000" fill-rule="nonzero" transform="translate(5 6.666667)"/></g></svg>