<svg height="46" viewBox="0 0 46 46" width="46" xmlns="http://www.w3.org/2000/svg"><g fill="none" fill-rule="evenodd"><path d="m0 0h46v46h-46z"/><path d="m13.8239739 11.1134239 9.7580002-9.75813476c.7484874-.74849771 1.9620336-.74850609 2.7105313-.0000187.0000047.00000472.0000094.00000943.0000141.00001414.7484998.74850511.7485014 1.96206558.0000034 2.71057256l-9.757999 9.75811676 9.7579956 9.7579956c.7484977.7484977.7484977 1.9620523 0 2.71055s-1.9620523.7484977-2.71055 0l-9.7579956-9.7579956-9.75811676 9.757999c-.74850698.748498-1.96206745.7484964-2.71057256-.0000034-.74849519-.7484899-.74849948-1.9620361-.00000958-2.7105313.00000471-.0000047.00000943-.0000094.00001414-.0000141l9.75813476-9.7580002-9.75813815-9.75812132c-.74850301-.74850171-.74850405-1.96206382-.00000234-2.71056683l.00000117-.00000117c.74850236-.74850236 1.96206447-.74850236 2.71056683 0 .00000039.00000039.00000078.00000078.00000117.00000117z" fill="#333" fill-rule="nonzero" transform="matrix(-1 0 0 -1 37.52145 37.521448)"/></g></svg>