<svg height="40" viewBox="0 0 40 40" width="40" xmlns="http://www.w3.org/2000/svg"><g fill="none" fill-rule="evenodd"><path d="m0 0h40v40h-40z" fill="#fff"/><path d="m12.0208469 9.6638469 8.4852175-8.4853346c.6508586-.65086758 1.7061162-.65087486 2.3569838-.00001626.0000041.0000041.0000082.00000819.0000123.00001229.6508694.65087401.6508707 1.70614398.0000029 2.35701962l-8.4852165 8.48531895 8.4852136 8.4852136c.6508675.6508675.6508675 1.7061324 0 2.357-.6508676.6508675-1.7061325.6508675-2.357 0l-8.4852136-8.4852136-8.48531895 8.4852165c-.65087564.6508678-1.70614561.6508665-2.35701962-.0000029-.65086538-.6508608-.65086912-1.7061184-.00000833-2.3569838.0000041-.0000041.0000082-.0000082.0000123-.0000123l8.4853346-8.4852175-8.48533755-8.48532292c-.65087218-.65087105-.65087309-1.70614245-.00000203-2.35701463.00000034-.00000034.00000067-.00000068.00000101-.00000102.65087162-.65087161 1.70614302-.65087161 2.35701464 0 .00000034.00000034.00000068.00000068.00000101.00000102z" fill="#333" fill-rule="nonzero" transform="matrix(-1 0 0 -1 32.627348 32.627346)"/></g></svg>