<svg height="32" viewBox="0 0 32 32" width="32" xmlns="http://www.w3.org/2000/svg" xmlns:xlink="http://www.w3.org/1999/xlink"><linearGradient id="a" x1="92.85473%" x2="-13.765448%" y1="76.652238%" y2="27.566747%"><stop offset="0" stop-color="#1764ff"/><stop offset="1" stop-color="#4093ed"/></linearGradient><g fill="none" fill-rule="evenodd"><path d="m-572-470h1507v1024h-1507z" fill="#fff"/><g fill-rule="nonzero"><circle cx="15.592058" cy="15.592058" fill="url(#a)" r="15.592058"/><path d="m12.4863388 17.4438581c.1114754-.0393442.2491803-.0327869.3737705-.0196721.0852459.0131147.1901639.0459016.3147541.0983606.295082-.0196721.5180328-.0065573.6688524.0459017.2229509.0786885.3278689.1770492.3868853.3278688.0327869.0983607.0393443.2032787 0 .3278689-.1114754-.0852459-.2098361-.1311476-.3016394-.1442623-.1377049-.0131148-.2032786.0131147-.4131147.0918033-.1442623.052459-.2491803.1245901-.3344262.1967213l-2.190164 1.8885246-.4131147 2.1967213c-.1836066.609836-.4327869 1.0950819-.73442625 1.4622951-.4590164.5508196-.76721312.6950819-1.31803279.9901639-.36721311.1967213-.78688525.3278689-1.26557377.3868852.23606557-.0459016.47868852-.2426229.74098361-.5836065.10491803-.1311476.35409836-.452459.43278688-.9639344.0852459-.5311476.13114754-1.7836066.13770492-3.7573771l-1.40983607-.4983606c3.47540987-1.337705 5.25245907-2.0196722 5.32459017-2.0459017zm10.9508197-4.1311475c.4196721 1.2.1377049 3.0557377-.5311476 4.6295082-1.6983606 3.9934426-6.3081967 5.8622951-10.3081967 4.1639344-.1704918-.0721311-.3409836-.1639344-.5245902-.2688525-.0983606-.0590164-.1967213-.1180327-.3278688-.1967213-.0721312-.0393442-.0721312-.0393442-.1311475-.0786885l1.3180327-2.1245902.1311476.0786886c.1114754.0721311.1901639.1180328.2622951.157377.104918.0590164.1901639.104918.2557377.1311476 2.7213114 1.1606557 5.8754098-.1114755 7.0295082-2.8393443.4459016-1.0557377.6426229-2.3409836.4721311-2.8327869zm-14.99672134-1.5213115c1.69836064-3.99344262 6.30819674-5.86229508 10.30819674-4.16393443 1.8360656.78032787 3.2655738 2.20983607 4.0721311 3.98032783l4.0459017-.7737704-20.00000003 7.9475409.79344262-4.2819672.1704918-.0327869c.04590164-.904918.24262295-1.809836.60983607-2.6754098zm9.33114754-1.8557377c-2.7213115-1.16065574-5.8754098.1114754-7.0295082 2.8393443-.1639344.3934426-.2754098.8-.347541 1.2065573l9.8622951-1.8819672c-.5704918-.9508197-1.4295082-1.7114754-2.4852459-2.1639344z" fill="#fff"/></g></g></svg>