<svg height="40" viewBox="0 0 40 40" width="40" xmlns="http://www.w3.org/2000/svg"><g fill="#1c6afd" fill-rule="evenodd"><rect fillOpacity=".05" height="40" rx="5" width="40"/><path d="m24.6484201 11c1.5598576 0 2.8282154 1.2283044 2.8282154 2.7392078l-.0000298 1.6050855c1.4169657.1524262 2.5233943 1.3550284 2.5233943 2.811915v2.9127726c0 1.4548083-1.1064286 2.6572732-2.5233943 2.8096904l.0000298 2.2726416c0 1.5109034-1.270583 2.7392078-2.8304406 2.7392078h-11.8157543c-1.5598576 0-2.8304406-1.2283044-2.8304406-2.7392078v-12.4121051c0-1.5109034 1.270583-2.7392078 2.8304406-2.7392078zm0 2.000445h-11.8179795c-.458389 0-.8299956.3315532-.8299956.7387628v12.4121051c0 .4072096.3716066.7387628.8299956.7387628h11.8179795c.4561638 0 .8299956-.3315532.8299956-.7387628l-.0004157-2.2573129-4.9306035.0009711c-2.3609256 0-4.2834891-1.9225634-4.2834891-4.2834891s1.9225635-4.2834891 4.2834891-4.2834891l4.9306035-.0009929.0004157-1.5877922c0-.4072096-.3716066-.7387628-.8299956-.7387628zm2.5233645 4.3257677h-6.6243881c-1.259457 0-2.283044 1.023587-2.283044 2.2830441 0 1.259457 1.023587 2.283044 2.283044 2.283044h6.6243881c.4561638 0 .8277704-.3716065.8277704-.8277703v-2.9105474c0-.4561638-.3716066-.8277704-.8277704-.8277704zm-6.5932354 1.270583c.5603957 0 1.0146862.4542905 1.0146862 1.0146863 0 .5603957-.4542905 1.0146862-1.0146862 1.0146862-.5603958 0-1.0146863-.4542905-1.0146863-1.0146862 0-.5603958.4542905-1.0146863 1.0146863-1.0146863z" fill-rule="nonzero" opacity=".5"/></g></svg>