<?xml version="1.0" encoding="UTF-8"?>
<svg width="18px" height="18px" viewBox="0 0 18 18" version="1.1" xmlns="http://www.w3.org/2000/svg" xmlns:xlink="http://www.w3.org/1999/xlink">
    <title>编组 8备份 6</title>
    <defs>
        <filter id="filter-1">
            <feColorMatrix in="SourceGraphic" type="matrix" values="0 0 0 0 1.000000 0 0 0 0 1.000000 0 0 0 0 1.000000 0 0 0 1.000000 0"></feColorMatrix>
        </filter>
    </defs>
    <g id="页面-1" stroke="none" stroke-width="1" fill="none" fill-rule="evenodd">
        <g id="切图" transform="translate(-649.000000, -63.000000)">
            <g id="编组-8备份-6" transform="translate(649.000000, 63.000000)">
                <circle id="椭圆形" fill="#000000" cx="9" cy="9" r="9"></circle>
                <g filter="url(#filter-1)" id="右箭头">
                    <g transform="translate(4.235294, 5.294118)">
                        <path d="M8.75230105,4.28857455 L0.348324879,4.28857455 C0.159458299,4.28857455 0.00635168466,4.13546794 0.00635168466,3.94660136 L0.00635168466,3.26265497 C0.00635168466,3.07378839 0.159458299,2.92068178 0.348324879,2.92068178 L8.75230105,2.92068178 L8.75230105,4.28857455 Z" id="路径" fill="#2C2C2C" fill-rule="nonzero"></path>
                        <path d="M5.49300098,7.10276666 L5.01049912,6.6202648 C4.94641391,6.55633498 4.91039812,6.46953423 4.91039812,6.37901387 C4.91039812,6.28849351 4.94641391,6.20169275 5.01049912,6.13776294 L7.54363389,3.60462816 L5.01049912,1.07149339 C4.87736459,0.938210837 4.87736459,0.722274085 5.01049912,0.58899153 L5.49300098,0.106489669 C5.62628353,-0.0266448563 5.84222028,-0.0266448563 5.97550284,0.106489669 L9.47364133,3.60462816 L5.97550284,7.10276666 C5.84222028,7.23590119 5.62628353,7.23590119 5.49300098,7.10276666 L5.49300098,7.10276666 Z" id="路径" fill="#2C2C2C" fill-rule="nonzero"></path>
                    </g>
                </g>
            </g>
        </g>
    </g>
</svg>