<svg height="18" viewBox="0 0 18 18" width="18" xmlns="http://www.w3.org/2000/svg" xmlns:xlink="http://www.w3.org/1999/xlink"><filter id="a"><feColorMatrix in="SourceGraphic" type="matrix" values="0 0 0 0 1.000000 0 0 0 0 1.000000 0 0 0 0 1.000000 0 0 0 1.000000 0"/></filter><g fill="none" fill-rule="evenodd"><circle cx="9" cy="9" fill="#000" r="9"/><g filter="url(#a)"><g fill="#2c2c2c" fill-rule="nonzero" transform="translate(4.235294 5.294118)"><path d="m8.75230105 4.28857455h-8.40397617c-.18886658 0-.3419732-.15310661-.3419732-.34197319v-.68394639c0-.18886658.15310662-.34197319.3419732-.34197319h8.40397617z"/><path d="m5.49300098 7.10276666-.48250186-.48250186c-.06408521-.06392982-.100101-.15073057-.100101-.24125093s.03601579-.17732112.100101-.24125093l2.53313477-2.53313478-2.53313477-2.53313477c-.13313453-.13328255-.13313453-.3492193 0-.48250186l.48250186-.48250186c.13328255-.13313453.3492193-.13313453.48250186 0l3.49813849 3.49813849-3.49813849 3.4981385c-.13328256.13313453-.34921931.13313453-.48250186 0z"/></g></g></g></svg>