<svg height="30" viewBox="0 0 30 30" width="30" xmlns="http://www.w3.org/2000/svg"><g fill="none" fill-rule="evenodd"><path d="m0 0h30v30h-30z"/><path d="m15 2.14285714c5.2718182 0 9.5454545 4.27365 9.5454545 9.54545456 0 .1547864-.0036818.3087136-.010909.4616864 3.183409 1.1201318 5.4654545 4.1536772 5.4654545 7.7201318 0 4.5186818-3.6631364 8.1818182-8.1818182 8.1818182h-13.63636362c-4.51869545 0-8.18181818-3.6631364-8.18181818-8.1818182 0-3.5664546 2.28199091-6.6 5.46550909-7.7201318-.00728182-.1529728-.01096364-.3069-.01096364-.4616864 0-5.27180456 4.27365-9.54545456 9.54545455-9.54545456zm0 2.72727273c-3.7655727 0-6.81818182 3.05260909-6.81818182 6.81818183 0 .1110954.00263182.2217682.00788182.3319636l.0966 2.0283546-1.91562273.6740454c-2.16467727.7615909-3.64340454 2.8141364-3.64340454 5.1474546 0 3.0124091 2.44208182 5.4545454 5.45454545 5.4545454h13.63636362c3.0124091 0 5.4545455-2.4421363 5.4545455-5.4545454 0-3.0136364-2.4409091-5.4545455-5.4545455-5.4545455-2.4095454 0-4.4540454 1.5623182-5.1760909 3.7291364-.181885.4711644-.8562244.9968961-1.7220667.5900324-.8658424-.4068637-1.0097995-.8761629-.8658424-1.4526688 1.0828637-3.2503636 4.1503637-5.5937727 7.764-5.5937727 0-3.76557274-3.0526363-6.81818183-6.8181818-6.81818183z" fill="#000" fill-rule="nonzero"/></g></svg>