<svg height="14" viewBox="0 0 13 14" width="13" xmlns="http://www.w3.org/2000/svg" xmlns:xlink="http://www.w3.org/1999/xlink"><filter id="a"><feColorMatrix in="SourceGraphic" type="matrix" values="0 0 0 0 0.141176 0 0 0 0 0.450980 0 0 0 0 0.980392 0 0 0 1.000000 0"/></filter><g fill="none" fill-rule="evenodd" filter="url(#a)" transform="translate(-213 -138)"><g fill="#336afa" fill-rule="nonzero" transform="translate(213 138)"><path d="m9.38888889 1.94444444h-8.18518519c-.66445724.00080357-1.20290778.54443153-1.2037037 1.21527778v9.23611108c0 .6703473.54022222 1.2152778 1.2037037 1.2152778h8.18518519c.66396301 0 1.20370371-.5449305 1.20370371-1.2152778v-9.23611108c0-.66986111-.5397407-1.21527778-1.20370371-1.21527778zm.24074074 10.45138886c0 .1336806-.10833333.2430556-.24074074.2430556h-8.18518519c-.13295744 0-.24074074-.1088197-.24074074-.2430556v-9.23611108c0-.13423587.1077833-.24305555.24074074-.24305555h8.18518519c.13295744 0 .24074074.10881968.24074074.24305555z"/><path d="m11.3148148 0h-8.18518517c-.26591488 0-.48148148.21763936-.48148148.48611111 0 .26847176.2155666.48611111.48148148.48611111h8.18518517c.1329575 0 .2407408.10881968.2407408.24305556v9.23611112c0 .2684717.2155666.4861111.4814814.4861111.2659149 0 .4814815-.2176394.4814815-.4861111v-9.23611112c0-.66986111-.5397407-1.21527778-1.2037037-1.21527778z"/><path d="m7.7037037 5.58541667h-4.81481481c-.26591488 0-.48148148.21763935-.48148148.48611111 0 .26847175.2155666.48611111.48148148.48611111h4.81481481c.26591488 0 .48148149-.21763936.48148149-.48611111 0-.26847176-.21556661-.48611111-.48148149-.48611111zm-1.92592592 2.97402777h-2.88888889c-.26591488 0-.48148148.21763936-.48148148.48611112 0 .26847175.2155666.48611111.48148148.48611111h2.88888889c.26591488 0 .48148148-.21763936.48148148-.48611111 0-.26847176-.2155666-.48611112-.48148148-.48611112z"/></g></g></svg>