<svg height="90" viewBox="0 0 90 90" width="90" xmlns="http://www.w3.org/2000/svg" xmlns:xlink="http://www.w3.org/1999/xlink"><defs><linearGradient id="a" x1="28.376984%" x2="20.215747%" y1="8.654558%" y2="85.659339%"><stop offset="0" stop-color="#e9f6ff"/><stop offset="1" stop-color="#145cff"/></linearGradient><linearGradient id="b" x1="37.781088%" x2="32.53162%" y1="20.420977%" y2="91.782746%"><stop offset="0" stop-color="#e1f3ff"/><stop offset="1" stop-color="#145cff"/></linearGradient><circle id="c" cx="45" cy="45" r="45"/><filter id="d" height="207.2%" width="310.3%" x="-105.2%" y="-53.6%"><feGaussianBlur in="SourceGraphic" stdDeviation="15.9010601"/></filter><linearGradient id="e" x1="91.932993%" x2="40.614781%" y1="80.70657%" y2="41.953967%"><stop offset="0" stop-color="#398bef"/><stop offset="1" stop-color="#1c6afd"/></linearGradient><circle id="f" cx="37.96875" cy="37.96875" r="37.96875"/><filter id="g" height="223%" width="223%" x="-61.5%" y="-61.5%"><feGaussianBlur in="SourceGraphic" stdDeviation="9.22261484"/></filter><linearGradient id="h" x1="65.396107%" x2="58.253456%" y1="83.991926%" y2="7.269647%"><stop offset="0" stop-color="#7caaff" stop-opacity=".4"/><stop offset="1" stop-color="#edfaff"/></linearGradient><filter id="i" height="180%" width="185.7%" x="-42.9%" y="-40%"><feGaussianBlur in="SourceGraphic" stdDeviation="5"/></filter><linearGradient id="j" x1="34.113467%" x2="6.440201%" y1="6.507149%" y2="79.970875%"><stop offset="0" stop-color="#e0f5ff"/><stop offset="1" stop-color="#8dc6ff"/></linearGradient><rect id="k" height="40" rx="10" width="40"/><filter id="l" height="192.3%" width="200%" x="-50%" y="-46.1%"><feGaussianBlur in="SourceGraphic" stdDeviation="4.44444444"/></filter><filter id="m" height="168.4%" width="170.8%" x="-35.4%" y="-34.2%"><feGaussianBlur in="SourceGraphic" stdDeviation="4.44444444"/></filter><mask id="n" fill="#fff"><use fill="#fff" fill-rule="evenodd" xlink:href="#c"/></mask><mask id="o" fill="#fff"><use fill="#fff" fill-rule="evenodd" xlink:href="#f"/></mask><mask id="p" fill="#fff"><use fill="#fff" fill-rule="evenodd" xlink:href="#k"/></mask></defs><g fill="none" fill-rule="evenodd"><circle cx="45" cy="45" fill="url(#a)" r="45"/><use fill="url(#b)" xlink:href="#c"/><path d="m61.6522083 0c7.8530828 21.9054272 13.7982495 39.4175306 17.8355001 52.5363102 6.0558759 19.6781695-35.3747804 26.1718734-24.0925596 35.0713996 11.2822207 8.8995262 43.4059494-26.717218 43.4059494-56.8896337 0-20.1149439-12.3829633-30.35430255-37.1488899-30.7180761z" fill="#00dbff" filter="url(#d)" mask="url(#n)" opacity=".6"/><g transform="translate(6.709364 6.576415)"><use fill="url(#e)" xlink:href="#f"/><circle cx="61.875" cy="22.5" fill="#00c7fe" filter="url(#g)" mask="url(#o)" opacity=".9" r="22.5"/><circle cx="37.96875" cy="37.96875" mask="url(#o)" r="37.03125" stroke="url(#h)" stroke-width="1.875"/></g><path d="m17.5 35h35v37.5h-35z" fill="#0948c0" filter="url(#i)" opacity=".48"/><g transform="translate(25 25)"><use fill="url(#j)" xlink:href="#k"/><path d="m31.1111111 46.6666667c7.3637967 0 13.3333333-5.9695367 13.3333333-13.3333334 0-6.9000873-6.6289465-18.3994455-9.8273198-14.9238992-.2149416.2335685-1.497965 3.4446755-1.6504053 3.8127881-2.420782 5.8457019-15.1889415 3.7473145-15.1889415 11.1111111 0 7.3637967 5.9695366 13.3333334 13.3333333 13.3333334z" fill="#a8eaff" filter="url(#l)" mask="url(#p)" opacity=".39"/><path d="m5.55555556 51.1111111c9.20474584 0 30.00000004-3.3333333 16.66666664-16.6666667-13.33333331-13.3333333-10.6556429-22.3141463-19.86038869-22.3141463-9.20474583 0-13.47294461 13.1094005-13.47294461 22.3141463 0 9.2047459 7.46192083 16.6666667 16.66666666 16.6666667z" fill="#2878f8" fill-opacity=".496221" filter="url(#m)" mask="url(#p)" opacity=".4"/><g stroke="#1c6afd" stroke-width="2.666667"><circle cx="20" cy="15.555556" mask="url(#p)" r="5.333333"/><path d="m8.88888889 28.8888889.51920148-.6230418c.84441703-1.0133004 2.09529523-1.5991804 3.41431683-1.5991804h14.3551856c1.3190216 0 2.5698998.58588 3.4143168 1.5991804l.5192015.6230418" mask="url(#p)" stroke-linecap="round"/></g></g></g></svg>