<svg height="90" viewBox="0 0 90 90" width="90" xmlns="http://www.w3.org/2000/svg" xmlns:xlink="http://www.w3.org/1999/xlink"><defs><linearGradient id="a" x1="28.376984%" x2="20.215747%" y1="8.654558%" y2="85.659339%"><stop offset="0" stop-color="#e9f6ff"/><stop offset="1" stop-color="#145cff"/></linearGradient><linearGradient id="b" x1="32.52939%" x2="32.52939%" y1="22.297869%" y2="90.916158%"><stop offset="0" stop-color="#e8f6ff"/><stop offset="1" stop-color="#145cff"/></linearGradient><circle id="c" cx="45" cy="45" r="45"/><filter id="d" height="207.2%" width="310.3%" x="-105.2%" y="-53.6%"><feGaussianBlur in="SourceGraphic" stdDeviation="15.9010601"/></filter><linearGradient id="e" x1="91.932993%" x2="40.614781%" y1="80.70657%" y2="41.953967%"><stop offset="0" stop-color="#398bef"/><stop offset="1" stop-color="#1c6afd"/></linearGradient><circle id="f" cx="37.96875" cy="37.96875" r="37.96875"/><filter id="g" height="223%" width="223%" x="-61.5%" y="-61.5%"><feGaussianBlur in="SourceGraphic" stdDeviation="9.22261484"/></filter><linearGradient id="h" x1="38.294633%" x2="45.425729%" y1="91.948885%" y2="0%"><stop offset="0" stop-color="#7caaff" stop-opacity=".4"/><stop offset="1" stop-color="#e9f9ff"/></linearGradient><filter id="i" height="180%" width="185.7%" x="-42.9%" y="-40%"><feGaussianBlur in="SourceGraphic" stdDeviation="5"/></filter><linearGradient id="j" x1="34.113467%" x2="6.440201%" y1="6.507149%" y2="79.970875%"><stop offset="0" stop-color="#e0f5ff"/><stop offset="1" stop-color="#8dc6ff"/></linearGradient><rect id="k" height="40" rx="10" width="40"/><filter id="l" height="192.3%" width="200%" x="-50%" y="-46.1%"><feGaussianBlur in="SourceGraphic" stdDeviation="4.44444444"/></filter><filter id="m" height="168.4%" width="170.8%" x="-35.4%" y="-34.2%"><feGaussianBlur in="SourceGraphic" stdDeviation="4.44444444"/></filter><mask id="n" fill="#fff"><use fill="#fff" fill-rule="evenodd" xlink:href="#c"/></mask><mask id="o" fill="#fff"><use fill="#fff" fill-rule="evenodd" xlink:href="#f"/></mask><mask id="p" fill="#fff"><use fill="#fff" fill-rule="evenodd" xlink:href="#k"/></mask></defs><g fill="none" fill-rule="evenodd"><circle cx="45" cy="45" fill="url(#a)" r="45"/><use fill="url(#b)" xlink:href="#c"/><path d="m61.6522083 0c7.8530828 21.9054272 13.7982495 39.4175306 17.8355001 52.5363102 6.0558759 19.6781695-35.3747804 26.1718734-24.0925596 35.0713996 11.2822207 8.8995262 43.4059494-26.717218 43.4059494-56.8896337 0-20.1149439-12.3829633-30.35430255-37.1488899-30.7180761z" fill="#00dbff" filter="url(#d)" mask="url(#n)" opacity=".6"/><g transform="translate(6.709364 6.576415)"><use fill="url(#e)" xlink:href="#f"/><circle cx="61.875" cy="22.5" fill="#00c7fe" filter="url(#g)" mask="url(#o)" opacity=".9" r="22.5"/><circle cx="37.96875" cy="37.96875" mask="url(#o)" r="37.03125" stroke="url(#h)" stroke-width="1.875"/></g><path d="m17.5 35h35v37.5h-35z" fill="#0948c0" filter="url(#i)" opacity=".48"/><g transform="translate(25 25)"><use fill="url(#j)" xlink:href="#k"/><path d="m31.1111111 46.6666667c7.3637967 0 13.3333333-5.9695367 13.3333333-13.3333334 0-6.9000873-6.6289465-18.3994455-9.8273198-14.9238992-.2149416.2335685-1.497965 3.4446755-1.6504053 3.8127881-2.420782 5.8457019-15.1889415 3.7473145-15.1889415 11.1111111 0 7.3637967 5.9695366 13.3333334 13.3333333 13.3333334z" fill="#a8eaff" filter="url(#l)" mask="url(#p)" opacity=".39"/><path d="m5.55555556 51.1111111c9.20474584 0 30.00000004-3.3333333 16.66666664-16.6666667-13.33333331-13.3333333-10.6556429-22.3141463-19.86038869-22.3141463-9.20474583 0-13.47294461 13.1094005-13.47294461 22.3141463 0 9.2047459 7.46192083 16.6666667 16.66666666 16.6666667z" fill="#2878f8" fill-opacity=".496221" filter="url(#m)" mask="url(#p)" opacity=".4"/><rect height="10" mask="url(#p)" rx="2.5" stroke="#1c6afd" stroke-width="2.5" width="10" x="7.5" y="7.5"/><path d="m27.5 8.75c1.9492403 0 3.5511217 1.4872202 3.7328336 3.38885l.0171664.36115v3.75c0 .6903559-.5596441 1.25-1.25 1.25s-1.25-.5596441-1.25-1.25v-3.75c0-.6136497-.4421879-1.1240209-1.0253109-1.2298608l-.2246891-.0201392h-3.75c-.6903559 0-1.25-.5596441-1.25-1.25 0-.69035594.5596441-1.25 1.25-1.25zm-13.75 22.5c-1.9492403 0-3.5511217-1.4872202-3.7328336-3.38885l-.0171664-.36115v-3.75c0-.6903559.5596441-1.25 1.25-1.25s1.25.5596441 1.25 1.25v3.75c0 .6136497.4421879 1.1240209 1.0253109 1.2298608l.2246891.0201392h2.5c.6903559 0 1.25.5596441 1.25 1.25s-.5596441 1.25-1.25 1.25z" fill="#1c6afd" fill-rule="nonzero" mask="url(#p)"/><rect height="10" mask="url(#p)" rx="2.5" stroke="#1c6afd" stroke-width="2.5" width="10" x="22.5" y="22.5"/></g></g></svg>