<?xml version="1.0" encoding="UTF-8"?>
<svg width="90px" height="90px" viewBox="0 0 90 90" version="1.1" xmlns="http://www.w3.org/2000/svg" xmlns:xlink="http://www.w3.org/1999/xlink">
    <defs>
        <linearGradient x1="28.3769842%" y1="8.65455822%" x2="20.2157474%" y2="85.6593386%" id="linearGradient-1">
            <stop stop-color="#E9F6FF" offset="0%"></stop>
            <stop stop-color="#145CFF" offset="100%"></stop>
        </linearGradient>
        <linearGradient x1="37.7810883%" y1="20.420977%" x2="32.5316203%" y2="91.7827464%" id="linearGradient-2">
            <stop stop-color="#E1F3FF" offset="0%"></stop>
            <stop stop-color="#145CFF" offset="100%"></stop>
        </linearGradient>
        <circle id="path-3" cx="45" cy="45" r="45"></circle>
        <filter x="-105.2%" y="-53.6%" width="310.3%" height="207.2%" filterUnits="objectBoundingBox" id="filter-5">
            <feGaussianBlur stdDeviation="15.9010601" in="SourceGraphic"></feGaussianBlur>
        </filter>
        <linearGradient x1="91.9329931%" y1="80.7065702%" x2="40.6147814%" y2="41.9539673%" id="linearGradient-6">
            <stop stop-color="#398BEF" offset="0%"></stop>
            <stop stop-color="#1C6AFD" offset="100%"></stop>
        </linearGradient>
        <circle id="path-7" cx="37.96875" cy="37.96875" r="37.96875"></circle>
        <filter x="-61.5%" y="-61.5%" width="223.0%" height="223.0%" filterUnits="objectBoundingBox" id="filter-9">
            <feGaussianBlur stdDeviation="9.22261484" in="SourceGraphic"></feGaussianBlur>
        </filter>
        <linearGradient x1="65.3961065%" y1="83.991926%" x2="58.2534559%" y2="7.26964693%" id="linearGradient-10">
            <stop stop-color="#7CAAFF" stop-opacity="0.4" offset="0%"></stop>
            <stop stop-color="#EDFAFF" offset="100%"></stop>
        </linearGradient>
        <filter x="-42.9%" y="-40.0%" width="185.7%" height="180.0%" filterUnits="objectBoundingBox" id="filter-11">
            <feGaussianBlur stdDeviation="5" in="SourceGraphic"></feGaussianBlur>
        </filter>
        <linearGradient x1="34.1134674%" y1="6.50714871%" x2="6.4402008%" y2="79.9708745%" id="linearGradient-12">
            <stop stop-color="#E0F5FF" offset="0%"></stop>
            <stop stop-color="#8DC6FF" offset="100%"></stop>
        </linearGradient>
        <rect id="path-13" x="0" y="0" width="40" height="40" rx="10"></rect>
        <filter x="-50.0%" y="-46.1%" width="200.0%" height="192.3%" filterUnits="objectBoundingBox" id="filter-15">
            <feGaussianBlur stdDeviation="4.44444444" in="SourceGraphic"></feGaussianBlur>
        </filter>
        <filter x="-35.4%" y="-34.2%" width="170.8%" height="168.4%" filterUnits="objectBoundingBox" id="filter-16">
            <feGaussianBlur stdDeviation="4.44444444" in="SourceGraphic"></feGaussianBlur>
        </filter>
    </defs>
    <g id="页面-1" stroke="none" stroke-width="1" fill="none" fill-rule="evenodd">
        <g id="h5所需要icon" transform="translate(-17.000000, -93.000000)">
            <g id="编组-30" transform="translate(17.000000, 93.000000)">
                <circle id="椭圆形" fill="url(#linearGradient-1)" cx="45" cy="45" r="45"></circle>
                <g id="路径-6">
                    <mask id="mask-4" fill="white">
                        <use xlink:href="#path-3"></use>
                    </mask>
                    <use id="蒙版" fill="url(#linearGradient-2)" xlink:href="#path-3"></use>
                    <path d="M61.6522083,9.29256672e-13 C69.5052911,21.9054272 75.4504578,39.4175306 79.4877084,52.5363102 C85.5435843,72.2144797 44.112928,78.7081836 55.3951488,87.6077098 C66.6773695,96.507236 98.8010982,60.8904918 98.8010982,30.7180761 C98.8010982,10.6031322 86.4181349,0.363773554 61.6522083,9.29256672e-13 Z" fill="#00DBFF" opacity="0.6" filter="url(#filter-5)" mask="url(#mask-4)"></path>
                </g>
                <g id="椭圆形" transform="translate(6.709364, 6.576415)">
                    <mask id="mask-8" fill="white">
                        <use xlink:href="#path-7"></use>
                    </mask>
                    <use id="蒙版" fill="url(#linearGradient-6)" xlink:href="#path-7"></use>
                    <circle fill="#00C7FE" opacity="0.9" filter="url(#filter-9)" mask="url(#mask-8)" cx="61.875" cy="22.5" r="22.5"></circle>
                    <circle id="蒙版" stroke="url(#linearGradient-10)" stroke-width="1.875" mask="url(#mask-8)" cx="37.96875" cy="37.96875" r="37.03125"></circle>
                </g>
                <rect id="矩形" fill="#0948C0" opacity="0.48" filter="url(#filter-11)" x="17.5" y="35" width="35" height="37.5"></rect>
                <g id="编组-6" transform="translate(25.000000, 25.000000)">
                    <mask id="mask-14" fill="white">
                        <use xlink:href="#path-13"></use>
                    </mask>
                    <use id="蒙版" fill="url(#linearGradient-12)" xlink:href="#path-13"></use>
                    <path d="M31.1111111,46.6666667 C38.4749078,46.6666667 44.4444444,40.69713 44.4444444,33.3333333 C44.4444444,26.433246 37.8154979,14.9338878 34.6171246,18.4094341 C34.402183,18.6430026 33.1191596,21.8541096 32.9667193,22.2222222 C30.5459373,28.0679241 17.7777778,25.9695367 17.7777778,33.3333333 C17.7777778,40.69713 23.7473144,46.6666667 31.1111111,46.6666667 Z" id="椭圆形" fill="#A8EAFF" opacity="0.39" filter="url(#filter-15)" mask="url(#mask-14)"></path>
                    <path d="M5.55555556,51.1111111 C14.7603014,51.1111111 35.5555556,47.7777778 22.2222222,34.4444444 C8.88888889,21.1111111 11.5665793,12.1302981 2.36183351,12.1302981 C-6.84291232,12.1302981 -11.1111111,25.2396986 -11.1111111,34.4444444 C-11.1111111,43.6491903 -3.64919027,51.1111111 5.55555556,51.1111111 Z" id="椭圆形备份" fill-opacity="0.496220942" fill="#2878F8" opacity="0.4" filter="url(#filter-16)" mask="url(#mask-14)"></path>
                    <circle id="椭圆形" stroke="#1C6AFD" stroke-width="2.66666667" mask="url(#mask-14)" cx="20" cy="15.5555556" r="5.33333333"></circle>
                    <path d="M8.88888889,28.8888889 L9.40809037,28.2658471 C10.2525074,27.2525467 11.5033856,26.6666667 12.8224072,26.6666667 L27.1775928,26.6666667 C28.4966144,26.6666667 29.7474926,27.2525467 30.5919096,28.2658471 L31.1111111,28.8888889 L31.1111111,28.8888889" id="路径" stroke="#1C6AFD" stroke-width="2.66666667" stroke-linecap="round" mask="url(#mask-14)"></path>
                </g>
            </g>
        </g>
    </g>
</svg>