<svg height="97" viewBox="0 0 202 97" width="202" xmlns="http://www.w3.org/2000/svg"><g fill="none" fill-rule="evenodd" transform="translate(1)"><g stroke="#1d6bfc"><g opacity=".08" stroke-width=".6912" transform="matrix(.93358043 -.35836795 .35836795 .93358043 167.934242 78.043425)"><ellipse cx="13.507886" cy="9.593154" rx="11.897808" ry="6.077442" transform="matrix(.9612617 -.27563736 .27563736 .9612617 -2.120959 4.0949)"/><path d="m24.6626638 6.79713981c.2261536.05578702.4241905.14008031.5716006.25336392.2900753.2229208.522136.66417266.6555952 1.15706072.2519246.93040157.1581218 1.92181485-.2396611 2.91951725-.3974985.9969892-1.1010393 2.0023134-2.0581154 2.9534663-1.8384051 1.8270274-4.6183003 3.4604981-7.9087839 4.4596982-3.2930528.9999802-6.4705314 1.1741231-8.94561802.6560256-1.29223877-.2704979-2.39568704-.7302576-3.2346007-1.3548613-.83992577-.6253573-1.41849997-1.4159692-1.67145658-2.3501821-.09255264-.341813-.13832367-.6916268-.139662-1.0468571l-.00419065-1.1123152.63379745.9140916c.8753065 1.2624069 2.61834872 2.0520723 4.8064452 2.3368101 2.22732487.2898427 4.9194975.0498573 7.6967809-.7935025 2.8212795-.8567198 5.2566578-2.1923002 7.0077045-3.7174362 1.7215593-1.4994529 2.788508-3.17872389 2.8458027-4.7600008.0061548-.16986374.000771-.34169849-.0156382-.51487849z"/></g><g opacity=".05" stroke-width=".616" transform="matrix(.77714596 -.62932039 .62932039 .77714596 160.538725 15.814741)"><ellipse cx="12.507301" cy="9.088251" rx="11.070786" ry="5.739952" transform="matrix(.9612617 -.27563736 .27563736 .9612617 -2.02055 3.799543)"/><path d="m23.1016717 5.8151772c.2589364.20720031.4856578.44810821.6791378.71915453.2454872.34390327.4277017.72265342.5404298 1.13189895.2345886.85200681.1471713 1.75990397-.2233549 2.67356942-.3702218.9129151-1.0254863 1.8334998-1.9168353 2.7044433-1.7124656 1.6732621-4.3019562 3.1692216-7.3669536 4.0843181-3.0665771.9155681-6.02556073 1.075316-8.33051402.6009509-1.20208707-.2473926-2.2286702-.6677992-3.0090988-1.2390696-.78139582-.5719783-1.31948092-1.2952701-1.55483962-2.1497108-.0861303-.3128182-.12873461-.6329543-.13001263-.9580447l-.00384123-.977096.56346755.7982704c.81864869 1.1597884 2.44724808 1.885681 4.4924334 2.147257 2.07876387.2658708 4.59118975.0457895 7.18303725-.7280417 2.6764459-.7990892 4.9806804-2.0522536 6.6200597-3.4805836 1.6062839-1.399495 2.5818395-2.96426391 2.5773395-4.42826985-.0009116-.296572-.0420663-.59703169-.1204549-.89904635z"/></g><g opacity=".1" stroke-width=".8" transform="matrix(.51503807 .8571673 -.8571673 .51503807 22.409171 48.362833)"><ellipse cx="18.660215" cy="13.131603" rx="16.534056" ry="8.357711" transform="matrix(.9612617 -.27563736 .27563736 .9612617 -2.896695 5.652148)"/><path d="m34.3136526 8.82760858c.2678247.09903941.5027167.22644164.6829964.38130865.3775183.3243023.6720871.90350807.8455363 1.54205967.3375798 1.2427963.2108199 2.566936-.3221232 3.8994123-.5352616 1.338273-1.4831741 2.6873495-2.7718783 3.9640259-2.4826828 2.4595113-6.2371961 4.657732-10.680699 6.0027928-4.446301 1.3459077-8.7366273 1.5813354-12.07865123.8839797-1.73882919-.3628289-3.22402395-.9788375-4.35294408-1.816703-1.1245186-.8345987-1.89992803-1.8893483-2.23864288-3.1363234-.1238457-.4559367-.18505774-.9225491-.18683349-1.3963822-.00165858-.4425701.04858053-.8792297.15340592-1.3071612.15550221.3888498.34681625.7492241.57497464 1.077267 1.19391474 1.7165937 3.56886508 2.7953778 6.55539442 3.1828151 3.0242885.3923357 6.6798563.0681152 10.4509984-1.0734201 3.8393924-1.1621948 7.1521004-2.9759353 9.5306081-5.0460375 2.3482852-2.0437984 3.7940646-4.3335491 3.8603966-6.48523197.0068421-.22194483-.0008745-.44625995-.0225386-.67240175z"/></g></g><g opacity=".1" transform="translate(70.416522 9.95751)"><path d="m55.0822986 6.92493582 6.7314505 7.08178908c.1700192.1789503.3374226.3612144.5015565.5461296.0562371.0636267.1046272.1338813.1602104.1981708.2981874.3453076.5852582.6998942.8618663 1.0644224l.1719809.2120891c.0156941.0212089.0287725.045069.0451205.0669407.3393843.4632822.6598051.9418083.9638778 1.4342528.0222332.0364528.049044.0695918.0712772.1067074.1863672.3048781.3635794.6157213.5355604.9305411.0307342.0569989.0595067.1159862.0902409.173648.1183595.2226936.2373729.4453872.3491932.6727202.049044.1000796.0928566.2041358.1405927.3048782.057545.122614.114436.2458908.1706731.3698304.1399388.3101804.2726846.6250002.399545.9437967.0385813.0961029.0791243.1902175.1163977.2869832l.0418509.1040562c.1477859.3910393.285109.7893693.4132773 1.1923387.0215794.0676034.0392352.1371951.0601606.2054613.0974341.3168082.1935603.6349419.2792238.9590406.0130784.051034.0228872.1040563.0359656.1550902.0595067.2313097.1092046.4665961.162826.7012197.057545.2558326.1177056.5103395.1680574.7701488.0457744.239263.0830478.4825028.1229369.7244169.032696.2001592.073893.3970044.1020115.5991519.0104628.0755567.017002.1537646.0274647.2293214.0170019.1292418.0307342.2598092.0457744.3897138.0418508.3565748.0765086.7158008.1039732 1.0783407.0098088.1292418.0215794.2571581.0294264.3863999.0294264.4738867.0496979.9510873.0549293 1.4342529.0006539.0676034-.0019618.1371951-.0013079.2054613.0013079.3101804.0019618.6203608-.0071931.9345178-.0026157.1020679-.0117706.2067869-.0156941.3101804-.0071931.1888919-.0183097.3791094-.0287724.5693268-.0189637.3340404-.0438127.6700692-.0745469 1.0074234-.0170019.1928686-.0346578.3850744-.0555832.5786057-.0392352.359226-.0869713.7211031-.1392849 1.083643-.024195.1703341-.0444666.3393427-.0719312.5096768-.0850096.5328739-.1804819 1.0677362-.2929561 1.6079008l-.1281864-.1350467c.028176.0296424.0708176.0745033.1279249.1345827-.1177056.5646874-.2524131 1.1260608-.3982372 1.6841204-.0477361.1835897-.1039732.3658538-.154979.5487807-.1039732.3731443-.2092543.7456259-.3249981 1.1154563-.0176559.0556734-.0313882.1133352-.049044.1690086-.1118203.3499471-.2314876.697243-.3531167 1.0438762-.0183098.0523595-.0346578.104719-.0536214.1570786-.1667496.4672588-.3446158.9305411-.5296751 1.3905094-.0549293.1365324-.113782.2710764-.1700191.4069461-.1360154.3274126-.2759542.6528369-.4211244.9762728-.0706233.1584041-.1432084.3154826-.2164475.4725611-.0581988.1252652-.1124742.2518559-.1719809.3764583-.0627763.1312301-.1327457.2591464-.1968298.3897138-.139285.2823436-.2805316.5640245-.4263558.8437171-.1177055.2246819-.2367189.4487011-.358348.6713947-.1510555.2763787-.3060345.550769-.4629752.8238338-.0712773.1239396-.1373232.2505303-.2099083.3738071l-.2020612.3280754c-.1157438.191543-.2327955.3817605-.351155.5713151-.1608642.2558326-.3243442.5103395-.4904398.763521-.1216291.1862407-.244566.371156-.3694647.5554084-.0634302.0934518-.1229369.1888919-.1870211.2810181-.0529675.0768823-.1124742.1484624-.1660956.224682-.4583978.6534996-.9285662 1.2977204-1.4229295 1.924709-.0019618.0026511-.0032696.0046394-.0052314.0072905-.008501.0106045-.0176558.0205462-.0261568.0311506-.4544743.5752918-.9285661 1.1346769-1.4118129 1.6861087l-.1817897.2173914c-.056891.0642895-.1190134.1232768-.1759044.1869036-.481285.535525-.9710709 1.062434-1.4778588 1.5727735l-.0170019.017895c-.0255029.0258484-.0529675.0490457-.0784704.074894-.4747458.475875-.9632239.9371689-1.4588951 1.3898467l-.203369.1935313c-.0680077.0616385-.1405928.1179746-.2092544.1789503-.5165966.4593055-1.0403864.909995-1.5766007 1.3427894-.0163479.0139183-.032042.0284994-.0588527.0497084-.5662946.4553288-1.1463215.8907744-1.7335415 1.3156154-.0719311.0523596-.1399388.1100213-.2125239.161718-.0712773.051034-.1458241.0954401-.2177553.1458113-.6146846.43412-1.2372163.8556471-1.8721724 1.2539771-.0111167.0072905-.0215794.0152439-.0320421.0218717-.4100077.2564953-.823285.5043745-1.2404859.7456259-.1144359.0662778-.2301798.1279162-.3452696.1928685-.2576444.1458113-.5146349.2929482-.774895.4327945-.0595067.0318133-.1203213.0609756-.1804819.092789-.2059847.1093584-.4139312.2127519-.6218777.3187964-.2576444.1305674-.5152888.2611348-.774895.3857372-.212524.1027307-.4270096.1994963-.6408414.2975876-.171327.0788706-.3406923.1623807-.5133271.2386003-.073239.0324761-.1484398.0589872-.2216788.0914634-.3727343.1610552-.7474303.3128315-1.1240882.4619567-.1680574.0662778-.3348069.1365324-.5035182.2008219-.5447152.2061241-1.0920461.400981-1.6439544.5799312-.0045775.0013256-.0091549.0033139-.0137323.0053023-.4433577.1431601-.889331.2750531-1.3359582.400981-.130784.0364528-.2622219.0709173-.3936597.1060446-.3393844.0908006-.6794227.1762991-1.0207689.2571581-.1353614.0318133-.2707228.0642895-.4067381.0947773-.4427037.0980912-.8867153.1902175-1.3313807.2704137-.017002.0026511-.03335.0066277-.0496979.0092789-.4603596.0821845-.9213731.1511135-1.3836944.2127519-.1347075.0185578-.2700689.0338017-.4047763.0497084-.3446158.041755-.6898854.0775451-1.0351551.1073701-.1373232.01193-.2746463.0251856-.4119695.0351273-.464937.0338017-.929874.0609756-1.3954649.0742312-7.4684182.2041358-13.7120445-2.4151652-17.9880262-6.9134434l-6.73079664-7.0824519c4.27598164 4.498941 10.51895414 4.7504228 17.98737234 4.5456242.4655909-.0125928.9305279-.0397667 1.3954649-.0735684.1373231-.0106045.2746463-.0231973.4119694-.0351273.3452697-.029825.6905394-.0656151 1.0345012-.1073701.1353614-.0165695.2707228-.0318134.4054303-.0497084.4623213-.0616384.9246426-.1305674 1.3843482-.212752l.0444666-.0086161c.4466272-.0801962.8919466-.1723224 1.3359581-.2710764.1360154-.0304878.2720307-.062964.4073921-.0954401.3413461-.0801962.6813844-.1656947 1.0207688-.2571581.130784-.0351273.2615679-.068929.3923519-.1053818.4518586-.1272535.9030633 2.1066844 1.3509983 1.9615359.5512544-.1789502 1.0985853-.3738071 1.6426466-.5799312.1693652-.0642896.3367687-.1345441.50548-.2014847.3760039-.1484624.7507-.3009015 1.1234343-.4619567.2452199-.1060446.4897859-.2167286.7330441-.3287382.2151396-.0980912.4296253-.1961824.6434571-.2982503.2589522-.1246024.5152888-.2551698.7722793-.3850744.2079465-.1060446.4172008-.2101008.6238395-.3201221.3210746-.170334.6395335-.3466331.9573386-.5262461.113782-.0642896.2288719-.125928.342654-.1915431.4276635-.2478791.8520575-.5037117 1.2725279-.7674975.6349562-.39833 1.2581417-.8205199 1.8734803-1.2546399l.4283175-.3062037c.58722-.4248411 1.1679007-.8609494 1.7348492-1.316941.0189637-.0152439.0372735-.0318134.0562371-.0470573.5368682-.4334572 1.0613119-.8848094 1.5785625-1.3454405.138631-.1226141.2759541-.2472164.4132773-.3718188.4943634-.452015.9821875-.9133089 1.4569333-1.3878584.0320421-.0324761.065392-.0629639.0974341-.0947773.5067878-.5110023.9965738-1.0379113 1.4778588-1.5734363.1196673-.1332185.2380268-.2677626.3563863-.4023066.4832467-.5514318.9566846-1.1108169 1.4111589-1.6861088.0111166-.0132555.0222333-.0265111.0333499-.0397667.4943634-.6269885.9645317-1.2718721 1.4229295-1.9253717.1177056-.167683.236719-.3347032.3518089-.5043745.1255526-.1842525.2484895-.3704933.3707725-.556734.1660957-.2531815.3295756-.5076884.489786-.763521.1190134-.1895546.236065-.3797721.3511549-.5706523.1399389-.2319725.2759542-.4659334.4113156-.700557.1575946-.2737275.3125736-.5487807.4636291-.8251593.1216291-.2233564.2412964-.4473756.359002-.6727203.1451702-.278367.2864169-.5593851.4250479-.841066.1255526-.2551697.2504513-.5110023.3707725-.7688231.0725851-.1564158.1445163-.3128315.2144857-.4699101.1458241-.3240987.285763-.6501857.4224322-.9782611l.1693652-.4062833c.1850593-.4606311.3629255-.9232506.5296751-1.3905095.0189637-.0523595.0353117-.1067073.0542753-.1597296.1412467-.4009811.2746464-.8046132.4015068-1.2102337.1163977-.3698304.2210249-.742312.3249981-1.1161191.0510058-.1829269.1072429-.3645282.154979-.5481179.1458242-.5580596.3021402-1.6264544.4198458-2.1911417.0216351.0271219.043204.0541472.0647067.0810759.0765582-.3968804.1443829-.7900821.2069024-1.1814915.0274646-.1709968.0477361-.3393426.0725851-.5096767.0516596-.3632027-1.0397325-1.2731976-1.0004974-1.6324236.0209255-.1935314.0385813-.3864.0562371-.5786057.0300804-.3380171.0549293-.6740459.073893-1.0080863.0111166-.1895546.0215793-.3791093.0287725-.5680012.016348-.4195388.0248489-.8364266.0228871-1.2493376 0-.0662779.0019618-.1345441.0013079-.2008219-.0052314-.4838284-1.1986046-.9616918-1.228031-1.4355784-.0078471-.1285791-.0189637-.2558326-.0287725-.3837488-.0120508-.1559424.183925-.2104796.4085378-.2500608l.2275146-.0377977c.2237721-.039216.4163848-.0922924.3984487-.2456783-.0150401-.1292418-.0287724-.2584836-.0457743-.3863999-.0366196-.2803553 1.0887461-.5554085 1.0436256-.8317871-.0398891-.2412514-.0771626-.4838284-.1229369-.7217659-.0503519-.260472-.1105125-.5156417-.1687113-.7714743-.0529676-.2339608-.1026655-.46991-.1621722-.6998941-.0967801-.3771211-.2020612-.7489398-.3158432-1.1167819-.0202715-.0669407-.0379274-.1365324-.0588528-.2034731-.1399389-.4394222-.2929561-.8715538-.4557821-1.2970577l-.1157438-.2856575c-.1268605-.3187965-.2602601-.6342791-.400199-.9444595-.0562371-.1239396-.1124742-.2472164-.170673-.3698304-.1562869-.3313893-.3197668-.6581392-.4910938-.9795868-.0300803-.0563362-.0581989-.1146607-.0882792-.1709969-.1929063-.3532609-.3975832-.6985686-.6074915-1.038574-.3040727-.4917817-.6244934-.97030783-.9638778-1.43359006l-.2177553-.28035534c-.2759542-.36386544-.563025-.71845198-.8605585-1.06243406-.2177553-.25185586-.4335488-.5043745-.6624207-.74496312z" fill="#1d6bfc" stroke="#fff" stroke-width=".652328"/><path d="m24.2166294 61.5521419c-16.55005652.4531844-27.08274296-12.9555085-23.52607309-29.9499238 3.55601595-16.9944152 19.85431339-31.13787648 36.40371599-31.59106088 16.5500566-.45318441 27.082743 12.95550858 23.5267271 29.94992378-3.556016 16.9944153-19.8543134 31.1378765-36.40437 31.5910609z" fill="#1d6bfc" stroke="#fff" stroke-width="1.1"/><path d="m29.0357939 31.8156011 5.9885855 2.3275465-.8622077 1.3949973-5.8795365-2.3007673c-.8054062 1.1947153-1.4211151 2.5431301-2.3071694 3.6109252-.9428559 1.268077-1.8857118 2.536154-2.9092159 3.6773108-1.3552051 1.488162-3.2227003 2.3149436-5.3798332 2.1065602-1.2563404-.0942902-2.5365273-.5157825-3.3191626-1.4577827-.2703454-.2806198-.4838892-.7615214-.3986868-1.0619443.1136031-.4005638.473705-.8477101.8576535-.9676541.2464987-.0465824.7633428.1874549 1.062089.3679337.2419446.3807607.4554884.8616624.5599832 1.3157848.4270876.9618033 1.2710786 1.2761785 2.3138752.889567 1.2086471-.5601142 2.0663006-1.5277683 2.7058562-2.548981 1.3359127-2.2427073 2.6434246-4.3852736 3.8702883-6.6547602l.1136032-.4005638-5.5523896-2.2204295.6441097-1.4485558 5.7704876 2.2739881 1.6437672-2.9169147-5.9601847-2.4276876.6725105-1.5486967 6.2066834 2.3811051c.3885027-.5472872.6395556-1.0212127.9996575-1.4683589 1.056459-1.6686408 2.1129181-3.3372817 3.8759184-4.6181856 1.7630003-1.280904 3.5736938-1.9074036 5.8353216-1.2448978.9814408.2410135 1.8776792.7824499 2.3331676 1.6441123.0806482.1269202.2419446.3807607.185143.5810426-.1136031.4005638-.255607.9012686-.6679563 1.1213536-.5213983.1933058-1.0382424-.0407316-1.3608352-.5484125-.2419446-.3807607-.3748402-.7347422-.6167847-1.1155029-.4270876-.9618033-1.3801277-1.3029578-2.342276-.789426-.6872488.3668084-1.4312992.9338987-1.9572516 1.5545475-1.3597594 1.9155052-2.5298216 3.9847098-3.9179817 6.0003559l5.7704876 2.273988-.8622077 1.3949973-5.5523896-2.2204295" fill="#fff"/></g><path d="m73.687312 32.6250297c-19.913202 3.1492971-33.3481255 9.1826201-33.3332245 16.1360758.0220475 10.2739755 29.3982156 18.6661566 65.6135205 18.744461 36.215304.0783044 65.555747-8.1869201 65.533724-18.4608956-.015769-7.3464407-15.040332-13.7307175-36.842044-16.8012114" stroke="#fff" stroke-width="1.056" transform="matrix(.97029573 .2419219 -.2419219 .97029573 15.212309 -24.144738)"/></g></svg>