<svg height="22" viewBox="0 0 43 22" width="43" xmlns="http://www.w3.org/2000/svg" xmlns:xlink="http://www.w3.org/1999/xlink"><linearGradient id="a" x1="0%" x2="97.050251%" y1="49.242255%" y2="51.30046%"><stop offset="0" stop-color="#e73b3b"/><stop offset="1" stop-color="#f55520"/></linearGradient><filter id="b" height="366.7%" width="151.6%" x="-25.8%" y="-133.3%"><feOffset dx="0" dy="1" in="SourceAlpha" result="shadowOffsetOuter1"/><feGaussianBlur in="shadowOffsetOuter1" result="shadowBlurOuter1" stdDeviation="1.5"/><feColorMatrix in="shadowBlurOuter1" result="shadowMatrixOuter1" type="matrix" values="0 0 0 0 0.590750874   0 0 0 0 0.0496372439   0 0 0 0 0.0300789199  0 0 0 0.24182385 0"/><feMerge><feMergeNode in="shadowMatrixOuter1"/><feMergeNode in="SourceGraphic"/></feMerge></filter><g fill="none" fill-rule="evenodd" transform="translate(0 3)"><path d="m2 0h34c3.3137085-0 6 2.6862915 6 6v4c0 1.1045695-.8954305 2-2 2h-34c-3.3137085 0-6-2.6862915-6-6v-4c-0-1.1045695.8954305-2 2-2z" fill="url(#a)" transform="matrix(-1 0 0 1 42 0)"/><g fill="#fff" fill-rule="nonzero" filter="url(#b)" transform="translate(6 3)"><path d="m0 0h3.75112285v.76716016h-2.87476882v1.83310902h2.57173051v.76716016h-2.57173051v2.54374159h-.87635403z"/><path d="m6.51941876 1.62314939c.14196389 0 .27437252.01884253.39722589.0565276.12285337.03768506.21977103.08882907.29075297.15343203l-.31941876.65410498c-.12558344-.07537012-.26481726-.11305518-.41770145-.11305518-.31122853 0-.56376046.12651413-.75759577.37954239-.19383532.25302827-.29075297.61372813-.29075297 1.0820996v2.07537012h-.84359313v-4.19111709h.74531043c.0109203.25841184.02730075.4845222.04914135.67833109.12558344-.25841185.28529282-.45222073.47912814-.58142665.19383531-.12920592.41633641-.19380889.6675033-.19380889z"/><path d="m9.5989432 1.62314939c.37129018 0 .6961691.08479139.9746367.25437416.2784677.16958278.4941436.40107672.6470278.69448183.1528842.29340512.2293262.6231494.2293262.98923284 0 .12382235-.0136503.2718708-.0409511.44414536h-2.98124172c.0327609.41991925.16380449.73620458.39313078.94885599s.51598415.31897712.85997358.31897712c.44773226 0 .77261116-.18304172.97463676-.54912517l.6306473.36339166c-.109203.29071332-.3166887.51547779-.6224571.6742934s-.6470278.23822342-1.02377808.23822342c-.38767063 0-.73985029-.08479139-1.05653897-.25437416s-.56922061-.42126514-.75759577-.75504711c-.18837517-.33378196-.28256275-.73216689-.28256275-1.19515477 0-.45222073.09418758-.84253029.28256275-1.17092867.18837516-.32839839.43954205-.57738896.75350066-.74697174.31395861-.16958277.65385293-.25437416 1.01968296-.25437416zm-.0327609.72678332c-.27846764 0-.52007926.08748317-.72483488.26244952-.20475561.17496636-.33443417.42934052-.38903566.76312248h2.11307794c-.0218406-.3230148-.1228534-.57469717-.3030383-.75504711-.180185-.18034993-.41224132-.27052489-.6961691-.27052489z"/><path d="m14.1035667 1.62314939c.3712902 0 .6961691.08479139.9746367.25437416.2784677.16958278.4941436.40107672.6470278.69448183.1528842.29340512.2293263.6231494.2293263.98923284 0 .12382235-.0136504.2718708-.0409512.44414536h-2.9812417c.0327609.41991925.1638045.73620458.3931308.94885599s.5159841.31897712.8599736.31897712c.4477322 0 .7726111-.18304172.9746367-.54912517l.6306473.36339166c-.109203.29071332-.3166887.51547779-.6224571.6742934s-.6470277.23822342-1.0237781.23822342c-.3876706 0-.7398503-.08479139-1.0565389-.25437416-.3166887-.16958277-.5692206-.42126514-.7575958-.75504711-.1883752-.33378196-.2825628-.73216689-.2825628-1.19515477 0-.45222073.0941876-.84253029.2825628-1.17092867.1883752-.32839839.439542-.57738896.7535007-.74697174.3139586-.16958277.6538529-.25437416 1.0196829-.25437416zm-.0327609.72678332c-.2784676 0-.5200792.08748317-.7248349.26244952-.2047556.17496636-.3344341.42934052-.3890356.76312248h2.1130779c-.0218406-.3230148-.1228534-.57469717-.3030383-.75504711-.1801849-.18034993-.4122413-.27052489-.6961691-.27052489z"/><path d="m19.4517834 0 1.8100396 4.72409152 1.7281374-4.72409152h.9091149l-2.2932629 5.91117093h-.7453104l-2.3915456-5.91117093z"/><path d="m25.5207398 5.91117093h-.8763541v-5.91117093h.8763541z"/><path d="m28.81321 0c.4258917 0 .8053721.07806191 1.1384413.23418573.3330691.15612383.5910612.37685061.7739762.66218035.182915.28532975.2743725.61103634.2743725.97711979 0 .36608344-.0914575.69044414-.2743725.9730821-.182915.28263795-.4395421.50201884-.7698811.65814266-.3303391.15612382-.7111845.23418574-1.1425364.23418574h-1.0401585v2.17227456h-.876354v-5.91117093zm-.1064729 2.98788694c.4313518 0 .765786-.10094212 1.0033025-.30282637.2375165-.20188426.3562748-.47240916.3562748-.8115747 0-.33916555-.1187583-.61103634-.3562748-.81561238-.2375165-.20457605-.5719507-.30686407-1.0033025-.30686407h-.9336856v2.23687752z"/></g></g></svg>