<?xml version="1.0" encoding="UTF-8"?>
<svg width="47px" height="12px" viewBox="0 0 47 12" version="1.1" xmlns="http://www.w3.org/2000/svg" xmlns:xlink="http://www.w3.org/1999/xlink">
    <title>hot备份</title>
    <defs>
        <linearGradient x1="0%" y1="49.394902%" x2="97.0502513%" y2="51.0384844%" id="linearGradient-1">
            <stop stop-color="#E73B3B" offset="0%"></stop>
            <stop stop-color="#F55520" offset="100%"></stop>
        </linearGradient>
    </defs>
    <g id="鸿蒙字体" stroke="none" stroke-width="1" fill="none" fill-rule="evenodd">
        <g id="hot备份">
            <path d="M2,0 L41,0 C44.3137085,-6.08718376e-16 47,2.6862915 47,6 L47,10 C47,11.1045695 46.1045695,12 45,12 L6,12 C2.6862915,12 4.05812251e-16,9.3137085 0,6 L0,2 C-1.3527075e-16,0.8954305 0.8954305,2.02906125e-16 2,0 Z" id="矩形备份-22" fill="url(#linearGradient-1)" transform="translate(23.500000, 6.000000) scale(-1, 1) translate(-23.500000, -6.000000) "></path>
            <g id="Free-VIP" transform="translate(5.500000, 2.300000)" fill="#FFFFFF" fill-rule="nonzero">
                <polygon id="路径" points="0 0 4.58 0 4.58 0.958950202 1.07 0.958950202 1.07 3.25033647 4.21 3.25033647 4.21 4.20928668 1.07 4.20928668 1.07 7.38896366 0 7.38896366"></polygon>
                <path d="M7.78,2.02893674 C7.95333333,2.02893674 8.115,2.05248991 8.265,2.09959623 C8.415,2.14670256 8.53333333,2.21063257 8.62,2.29138627 L8.23,3.1090175 C8.07666667,3.01480485 7.90666667,2.96769852 7.72,2.96769852 C7.34,2.96769852 7.03166667,3.12584118 6.795,3.44212651 C6.55833333,3.75841184 6.44,4.20928668 6.44,4.79475101 L6.44,7.38896366 L5.41,7.38896366 L5.41,2.15006729 L6.32,2.15006729 C6.33333333,2.4730821 6.35333333,2.75572005 6.38,2.99798116 C6.53333333,2.67496635 6.72833333,2.43270525 6.965,2.27119785 C7.20166667,2.10969044 7.47333333,2.02893674 7.78,2.02893674 Z" id="路径"></path>
                <path d="M11.21,2.02893674 C11.6633333,2.02893674 12.06,2.13492598 12.4,2.34690444 C12.74,2.55888291 13.0033333,2.84825034 13.19,3.21500673 C13.3766667,3.58176312 13.47,3.99394347 13.47,4.45154778 C13.47,4.60632571 13.4533333,4.79138627 13.42,5.00672948 L9.78,5.00672948 C9.82,5.53162853 9.98,5.9269852 10.26,6.19279946 C10.54,6.45861373 10.89,6.59152086 11.31,6.59152086 C11.8566667,6.59152086 12.2533333,6.36271871 12.5,5.9051144 L13.27,6.35935397 C13.1366667,6.72274563 12.8833333,7.00370121 12.51,7.20222073 C12.1366667,7.40074024 11.72,7.5 11.26,7.5 C10.7866667,7.5 10.3566667,7.39401077 9.97,7.1820323 C9.58333333,6.97005384 9.275,6.65545087 9.045,6.23822342 C8.815,5.82099596 8.7,5.3230148 8.7,4.74427995 C8.7,4.17900404 8.815,3.69111709 9.045,3.28061911 C9.275,2.87012113 9.58166667,2.55888291 9.965,2.34690444 C10.3483333,2.13492598 10.7633333,2.02893674 11.21,2.02893674 Z M11.17,2.93741588 C10.83,2.93741588 10.535,3.04676985 10.285,3.26547779 C10.035,3.48418573 9.87666667,3.80215343 9.81,4.21938089 L12.39,4.21938089 C12.3633333,3.81561238 12.24,3.50100942 12.02,3.27557201 C11.8,3.05013459 11.5166667,2.93741588 11.17,2.93741588 Z" id="形状"></path>
                <path d="M16.71,2.02893674 C17.1633333,2.02893674 17.56,2.13492598 17.9,2.34690444 C18.24,2.55888291 18.5033333,2.84825034 18.69,3.21500673 C18.8766667,3.58176312 18.97,3.99394347 18.97,4.45154778 C18.97,4.60632571 18.9533333,4.79138627 18.92,5.00672948 L15.28,5.00672948 C15.32,5.53162853 15.48,5.9269852 15.76,6.19279946 C16.04,6.45861373 16.39,6.59152086 16.81,6.59152086 C17.3566667,6.59152086 17.7533333,6.36271871 18,5.9051144 L18.77,6.35935397 C18.6366667,6.72274563 18.3833333,7.00370121 18.01,7.20222073 C17.6366667,7.40074024 17.22,7.5 16.76,7.5 C16.2866667,7.5 15.8566667,7.39401077 15.47,7.1820323 C15.0833333,6.97005384 14.775,6.65545087 14.545,6.23822342 C14.315,5.82099596 14.2,5.3230148 14.2,4.74427995 C14.2,4.17900404 14.315,3.69111709 14.545,3.28061911 C14.775,2.87012113 15.0816667,2.55888291 15.465,2.34690444 C15.8483333,2.13492598 16.2633333,2.02893674 16.71,2.02893674 Z M16.67,2.93741588 C16.33,2.93741588 16.035,3.04676985 15.785,3.26547779 C15.535,3.48418573 15.3766667,3.80215343 15.31,4.21938089 L17.89,4.21938089 C17.8633333,3.81561238 17.74,3.50100942 17.52,3.27557201 C17.3,3.05013459 17.0166667,2.93741588 16.67,2.93741588 Z" id="形状"></path>
                <polygon id="路径" points="22.84 0 25.05 5.9051144 27.16 0 28.27 0 25.47 7.38896366 24.56 7.38896366 21.64 0"></polygon>
                <polygon id="路径" points="30.25 7.38896366 29.18 7.38896366 29.18 0 30.25 0"></polygon>
                <path d="M34.27,0 C34.79,0 35.2533333,0.097577389 35.66,0.292732167 C36.0666667,0.487886945 36.3816667,0.763795424 36.605,1.1204576 C36.8283333,1.47711978 36.94,1.88425303 36.94,2.34185734 C36.94,2.79946164 36.8283333,3.20491252 36.605,3.55820996 C36.3816667,3.9115074 36.0683333,4.18573351 35.665,4.38088829 C35.2616667,4.57604307 34.7966667,4.67362046 34.27,4.67362046 L33,4.67362046 L33,7.38896366 L31.93,7.38896366 L31.93,0 L34.27,0 Z M34.14,3.73485868 C34.6666667,3.73485868 35.075,3.60868102 35.365,3.35632571 C35.655,3.10397039 35.8,2.76581427 35.8,2.34185734 C35.8,1.9179004 35.655,1.57806191 35.365,1.32234186 C35.075,1.0666218 34.6666667,0.938761777 34.14,0.938761777 L33,0.938761777 L33,3.73485868 L34.14,3.73485868 Z" id="形状"></path>
            </g>
        </g>
    </g>
</svg>