<svg height="40" viewBox="0 0 40 40" width="40" xmlns="http://www.w3.org/2000/svg"><g fill="#1c6afd" fill-rule="evenodd"><rect fill-opacity=".05" height="40" rx="5" width="40"/><path d="m23.7985915 11c.515493 0 .9338108.4183099.9338108.9338028l-.0004023.4151972 1.4940563.001c1.5295775 0 2.7739437 1.2443662 2.7739437 2.7739437v11.7950704c0 1.5316901-1.2443662 2.7760563-2.7739437 2.7760563h-12.4521126c-1.5295775 0-2.7739437-1.2443662-2.7739437-2.7760563v-11.7950704c0-1.5295775 1.2443662-2.7739437 2.7739437-2.7739437l.9250563-.001.0002958-.4151972c0-.5154929.4183098-.9338028.9338028-.9338028.5154929 0 .9338028.4183099.9338028.9338028l-.0009014.4151972h6.298l.0007887-.4151972c0-.5154929.4183099-.9338028.9338028-.9338028zm-9.0995915 3.219-.9250563.0007183c-.4985916 0-.9042254.4056338-.9042254.9042254v11.7950704c0 .4985915.4056338.9042253.9042254.9042253h12.4521126c.4985916 0 .9042254-.4056338.9042254-.9042253v-11.7950704c0-.4985916-.4056338-.9042254-.9042254-.9042254l-1.4940563-.0007183.0004023.4190282c.0021047.5154929-.4162051.9338028-.9338108.9338028-.5154929 0-.9338028-.4183099-.9338028-.9338028l-.0007887-.4190282h-6.298l.0009014.4190282c0 .5154929-.4183099.9338028-.9338028.9338028-.515493 0-.9338028-.4183099-.9338028-.9338028zm8.1721268 3.2669155c.3654929.365493.3654929.9570422 0 1.3225352l-.8451268.8445493.3887887.0005211c.515493 0 .9338028.4183099.9338028.9338028 0 .515493-.4183098.9338029-.9338028.9338029l-1.4817887-.0001268v.9l1.4817887.0001268c.515493 0 .9338028.4183098.9338028.9338028 0 .5154929-.4183098.9338028-.9338028.9338028l-1.4817887-.0007324.0008028.8605915c0 .515493-.4183098.9338029-.9338028.9338029s-.9338028-.4183099-.9338028-.9338029l-.0001972-.8605915-1.4807887.0007324c-.515493 0-.9338028-.4183099-.9338028-.9338028 0-.515493.4183098-.9338028.9338028-.9338028l1.4807887-.0001268v-.9l-1.4807887.0001268c-.515493 0-.9338028-.4183099-.9338028-.9338029 0-.5154929.4183098-.9338028.9338028-.9338028l.3517887-.0005211-.8081268-.8086338c-.3654929-.365493-.3654929-.9570423 0-1.3225352.365493-.365493.9570423-.365493 1.3225353 0l1.5305915 1.530169 1.5665915-1.5660845c.365493-.365493.9570423-.365493 1.3225353 0z" fill-rule="nonzero" opacity=".5"/></g></svg>