<?xml version="1.0" encoding="UTF-8"?>
<svg width="27px" height="14px" viewBox="0 0 27 14" version="1.1" xmlns="http://www.w3.org/2000/svg" xmlns:xlink="http://www.w3.org/1999/xlink">
    <title>切片</title>
    <defs>
        <linearGradient x1="0%" y1="47.5043281%" x2="97.0502513%" y2="54.2831349%" id="linearGradient-1">
            <stop stop-color="#F55520" offset="0%"></stop>
            <stop stop-color="#E73B3B" offset="100%"></stop>
        </linearGradient>
    </defs>
    <g id="页面-1" stroke="none" stroke-width="1" fill="none" fill-rule="evenodd">
        <g id="hot备份">
            <path d="M4,0 L23,0 C25.209139,-4.05812251e-16 27,1.790861 27,4 L27,10 C27,12.209139 25.209139,14 23,14 L0,14 L0,14 L0,4 C-2.705415e-16,1.790861 1.790861,4.05812251e-16 4,0 Z" id="矩形备份-22" fill="url(#linearGradient-1)"></path>
            <path d="M6.04675029,10.741989 L6.04675029,7.73508287 L8.84777651,7.73508287 L8.84777651,10.741989 L9.8945268,10.741989 L9.8945268,3.85801105 L8.84777651,3.85801105 L8.84777651,6.79723757 L6.04675029,6.79723757 L6.04675029,3.85801105 L5,3.85801105 L5,10.741989 L6.04675029,10.741989 Z M13.9264538,10.8 C14.6630559,10.8 15.2736602,10.5389503 15.7485747,10.0651934 C16.3871152,9.42820929 16.4075055,8.71414479 16.4076963,7.52802566 L16.4076397,7.3 C16.4076397,5.97541436 16.4270239,5.21160221 15.7485747,4.53480663 C15.2736602,4.06104972 14.6630559,3.8 13.9264538,3.8 C13.1898518,3.8 12.5889396,4.06104972 12.1140251,4.53480663 C11.5153934,5.1319792 11.4525119,5.79689824 11.4460018,6.85501247 L11.4460018,7.74498753 C11.4525119,8.80310176 11.5153934,9.4680208 12.1140251,10.0651934 C12.5889396,10.5389503 13.1898518,10.8 13.9264538,10.8 Z M13.9264538,9.8621547 C13.5193843,9.8621547 13.1413911,9.69779006 12.8990878,9.43674033 C12.578709,9.08974831 12.5003942,8.72550815 12.4926813,7.52137933 L12.4920182,7.3 C12.4920182,5.91740331 12.5598632,5.53066298 12.8990878,5.16325967 C13.1413911,4.90220994 13.5193843,4.7378453 13.9264538,4.7378453 C14.3335234,4.7378453 14.7115165,4.90220994 14.9538198,5.16325967 C15.2930445,5.53066298 15.3608894,5.91740331 15.3608894,7.3 C15.3608894,8.68259669 15.2930445,9.06933702 14.9538198,9.43674033 C14.7115165,9.69779006 14.3335234,9.8621547 13.9264538,9.8621547 Z M20.1003421,10.741989 L20.1003421,4.79585635 L22,4.79585635 L22,3.85801105 L17.1539339,3.85801105 L17.1539339,4.79585635 L19.0535918,4.79585635 L19.0535918,10.741989 L20.1003421,10.741989 Z" id="HOT备份" fill="#FFFFFF" fill-rule="nonzero"></path>
        </g>
    </g>
</svg>