<svg height="14" viewBox="0 0 27 14" width="27" xmlns="http://www.w3.org/2000/svg" xmlns:xlink="http://www.w3.org/1999/xlink"><linearGradient id="a" x1="0%" x2="97.050251%" y1="47.504328%" y2="54.283135%"><stop offset="0" stop-color="#f55520"/><stop offset="1" stop-color="#e73b3b"/></linearGradient><g fill="none" fill-rule="evenodd"><path d="m4 0h19c2.209139-0 4 1.790861 4 4v6c0 2.209139-1.790861 4-4 4h-23v-10c-0-2.209139 1.790861-4 4-4z" fill="url(#a)"/><path d="m6.04675029 10.741989v-3.00690613h2.80102622v3.00690613h1.04675029v-6.88397795h-1.04675029v2.93922652h-2.80102622v-2.93922652h-1.04675029v6.88397795zm7.87970351.058011c.7366021 0 1.3472064-.2610497 1.8221209-.7348066.6385405-.63698411.6589308-1.35104861.6591216-2.53716774l-.0000566-.22802566c0-1.32458564.0193842-2.08839779-.659065-2.76519337-.4749145-.47375691-1.0855188-.73480663-1.8221209-.73480663-.736602 0-1.3375142.26104972-1.8124287.73480663-.5986317.59717257-.6615132 1.26209161-.6680233 2.32020584v.88997506c.0065101 1.05811423.0693916 1.72303327.6680233 2.32020587.4749145.4737569 1.0758267.7348066 1.8124287.7348066zm0-.9378453c-.4070695 0-.7850627-.16436464-1.027366-.42541437-.3203788-.34699202-.3986936-.71123218-.4064065-1.915361l-.0006631-.22137933c0-1.38259669.067845-1.76933702.4070696-2.13674033.2423033-.26104973.6202965-.42541437 1.027366-.42541437.4070696 0 .7850627.16436464 1.027366.42541437.3392247.36740331.4070696.75414364.4070696 2.13674033s-.0678449 1.76933702-.4070696 2.13674033c-.2423033.26104973-.6202964.42541437-1.027366.42541437zm6.1738883.8798343v-5.94613265h1.8996579v-.9378453h-4.8460661v.9378453h1.8996579v5.94613265z" fill="#fff" fill-rule="nonzero"/></g></svg>