<?xml version="1.0" encoding="UTF-8"?>
<svg id="_图层_1" data-name="图层 1" xmlns="http://www.w3.org/2000/svg" viewBox="0 0 22 22">
  <defs>
    <style>
      .cls-1 {
        fill: #336afa;
      }
    </style>
  </defs>
  <path id="_形状" data-name="形状" class="cls-1" d="M16.5,3.14H2.12c-1.17,0-2.11,.88-2.12,1.96v14.93c0,1.08,.95,1.96,2.12,1.96h14.38c1.17,0,2.12-.88,2.12-1.96V5.11c0-1.08-.95-1.96-2.12-1.96Zm.42,16.89c0,.22-.19,.39-.42,.39H2.12c-.23,0-.42-.18-.42-.39V5.11c0-.22,.19-.39,.42-.39h14.38c.23,0,.42,.18,.42,.39v14.93Z"/>
  <path id="_路径" data-name="路径" class="cls-1" d="M19.88,0H5.5c-.47,0-.85,.35-.85,.79s.38,.79,.85,.79h14.38c.23,0,.42,.18,.42,.39v14.93c0,.43,.38,.79,.85,.79s.85-.35,.85-.79V1.96c0-1.08-.95-1.96-2.12-1.96Z"/>
  <path id="_形状-2" data-name="形状" class="cls-1" d="M13.54,9.03H5.08c-.47,0-.85,.35-.85,.79s.38,.79,.85,.79H13.54c.47,0,.85-.35,.85-.79s-.38-.79-.85-.79Zm-3.38,4.81H5.08c-.47,0-.85,.35-.85,.79s.38,.79,.85,.79h5.08c.47,0,.85-.35,.85-.79s-.38-.79-.85-.79Z"/>
</svg>