<svg height="36" viewBox="0 0 36 36" width="36" xmlns="http://www.w3.org/2000/svg" xmlns:xlink="http://www.w3.org/1999/xlink"><filter id="a"><feColorMatrix in="SourceGraphic" type="matrix" values="0 0 0 0 0.600000 0 0 0 0 0.600000 0 0 0 0 0.600000 0 0 0 1.000000 0"/></filter><g fill="none" fill-rule="evenodd"><circle cx="18" cy="18" fill="#f5f5f5" r="18"/><g filter="url(#a)"><g fill="#2c2c2c" fill-rule="nonzero" transform="translate(8.483292 10.601513)"><path d="m17.4918987 8.56387156h-16.80795231c-.37773316 0-.68394639-.30621323-.68394639-.68394639v-1.36789278c0-.37773316.30621323-.68394639.68394639-.68394639h16.80795231z"/><path d="m10.9732986 14.1922558-.9650037-.9650038c-.12817046-.1278596-.20020203-.3014611-.20020203-.4825018s.07203157-.3546422.20020203-.4825019l5.0662695-5.06626952-5.0662695-5.06626955c-.26626909-.26656511-.26626909-.69843861 0-.96500372l.9650037-.96500372c.2665651-.26626905.6984386-.26626905.9650037 0l6.996277 6.99627699-6.996277 6.99627702c-.2665651.266269-.6984386.266269-.9650037 0z"/></g></g></g></svg>