<svg viewBox="0 0 22 22" xmlns="http://www.w3.org/2000/svg"><g fill="#336afa"><path d="m16.5 3.14h-14.38c-1.17 0-2.11.88-2.12 1.96v14.93c0 1.08.95 1.96 2.12 1.96h14.38c1.17 0 2.12-.88 2.12-1.96v-14.92c0-1.08-.95-1.96-2.12-1.96zm.42 16.89c0 .22-.19.39-.42.39h-14.38c-.23 0-.42-.18-.42-.39v-14.92c0-.22.19-.39.42-.39h14.38c.23 0 .42.18.42.39v14.93z"/><path d="m19.88 0h-14.38c-.47 0-.85.35-.85.79s.38.79.85.79h14.38c.23 0 .42.18.42.39v14.93c0 .43.38.79.85.79s.85-.35.85-.79v-14.94c0-1.08-.95-1.96-2.12-1.96z"/><path d="m13.54 9.03h-8.46c-.47 0-.85.35-.85.79s.38.79.85.79h8.46c.47 0 .85-.35.85-.79s-.38-.79-.85-.79zm-3.38 4.81h-5.08c-.47 0-.85.35-.85.79s.38.79.85.79h5.08c.47 0 .85-.35.85-.79s-.38-.79-.85-.79z"/></g></svg>