<svg height="32" viewBox="0 0 32 32" width="32" xmlns="http://www.w3.org/2000/svg"><g fill="none" fill-rule="evenodd"><rect height="32" rx="2" width="32"/><g fill="#2473fa" fill-rule="nonzero" transform="translate(6 11)"><path d="m15 3h-13.07692308c-1.0615589.00123979-1.92180534.83998007-1.92307692 1.875v14.25c0 1.03425.86307692 1.875 1.92307692 1.875h13.07692308c1.0607692 0 1.9230769-.84075 1.9230769-1.875v-14.25c0-1.0335-.8623077-1.875-1.9230769-1.875zm.3846154 16.125c0 .20625-.1730769.375-.3846154.375h-13.07692308c-.21241721 0-.38461538-.1678932-.38461538-.375v-14.25c0-.20710678.17219817-.375.38461538-.375h13.07692308c.2124172 0 .3846154.16789322.3846154.375z"/><path d="m18.0769231 0h-13.0769231c-.42483442 0-.76923077.33578644-.76923077.75s.34439635.75.76923077.75h13.0769231c.2124172 0 .3846154.16789322.3846154.375v14.25c0 .4142136.3443963.75.7692307.75.4248345 0 .7692308-.3357864.7692308-.75v-14.25c0-1.0335-.8623077-1.875-1.9230769-1.875z"/><path d="m12.3076923 8.6175h-7.69230768c-.42483443 0-.76923077.33578644-.76923077.75s.34439634.75.76923077.75h7.69230768c.4248344 0 .7692308-.33578644.7692308-.75s-.3443964-.75-.7692308-.75zm-3.07692307 4.5885h-4.61538461c-.42483443 0-.76923077.3357864-.76923077.75s.34439634.75.76923077.75h4.61538461c.42483442 0 .76923077-.3357864.76923077-.75s-.34439635-.75-.76923077-.75z"/></g></g></svg>