<svg height="42" viewBox="0 0 42 42" width="42" xmlns="http://www.w3.org/2000/svg"><g fill="none" fill-rule="evenodd"><circle cx="21" cy="21" fill="#f5f5f5" r="21"/><g fill="#666" fill-rule="nonzero" transform="translate(9.897174 12.368432)"><path d="m20.4072152 9.99118348h-19.60927775c-.44068868 0-.79793745-.35724876-.79793745-.79793745v-1.59587491c0-.44068868.35724877-.79793745.79793745-.79793745h19.60927775z"/><path d="m12.8021817 16.5576317-1.1258377-1.1258376c-.1495322-.1491696-.233569-.3517047-.233569-.5629189s.0840368-.4137493.233569-.5629188l5.9106478-5.91064782-5.9106478-5.91064781c-.3106472-.31099263-.3106472-.81484505 0-1.12583767l1.1258377-1.12583768c.3109926-.31064723.814845-.31064723 1.1258377 0l8.1623231 8.16232316-8.1623231 8.16232312c-.3109927.3106473-.8148451.3106473-1.1258377 0z"/></g></g></svg>