<svg fill="none" height="652" viewBox="0 0 1440 652" width="1440" xmlns="http://www.w3.org/2000/svg" xmlns:xlink="http://www.w3.org/1999/xlink"><filter id="a" color-interpolation-filters="sRGB" filterUnits="userSpaceOnUse" height="475.104" width="757.064" x="-242.821" y="64.2451"><feFlood flood-opacity="0" result="BackgroundImageFix"/><feBlend in="SourceGraphic" in2="BackgroundImageFix" mode="normal" result="shape"/><feGaussianBlur result="effect1_foregroundBlur_362_800" stdDeviation="75"/></filter><filter id="b" color-interpolation-filters="sRGB" filterUnits="userSpaceOnUse" height="501.627" width="807.197" x="194.643" y="-212.6"><feFlood flood-opacity="0" result="BackgroundImageFix"/><feBlend in="SourceGraphic" in2="BackgroundImageFix" mode="normal" result="shape"/><feGaussianBlur result="effect1_foregroundBlur_362_800" stdDeviation="75"/></filter><linearGradient id="c" gradientUnits="userSpaceOnUse" x1="-53.9882" x2="285.5" y1="257.294" y2="269.5"><stop offset=".149017" stop-color="#1764ff"/><stop offset=".516553" stop-color="#85f3c7"/><stop offset=".994792" stop-color="#2de7ff"/></linearGradient><linearGradient id="d" gradientUnits="userSpaceOnUse" x1="438.015" x2="781.059" y1="68.1517" y2="-56.4749"><stop offset="0" stop-color="#1764ff"/><stop offset=".294051" stop-color="#16cde5"/><stop offset=".994792" stop-color="#a9ffbd"/></linearGradient><mask id="e" height="326" maskUnits="userSpaceOnUse" width="720" x="0" y="0"><path d="m0 0h720v326h-720z" fill="#fff"/></mask><g mask="url(#e)"><g filter="url(#a)" opacity=".5"><path d="m169.34 261.693c60.839 56.471 191.391-5.918 194.903 14.532-.538 62.303-229.603 113.598-284.7766 113.121-55.1735-.477-138.5717-48.116-138.0332-110.419-136.3382-89.234 174.7608-77.456 227.9068-17.234z" fill="url(#c)"/></g><g filter="url(#b)" opacity=".2"><path d="m609.179-17.5909c137.448 30.8766 224.261-60.527 237.915-42.6745 22.341 61.49313-36.342 139.2419-131.071 173.6564-94.729 34.415-255.436 40.382-277.777-21.1108-245.814-185.9741 57.371-135.3817 170.933-109.8711z" fill="url(#d)"/></g></g></svg>