<svg height="32" viewBox="0 0 33 32" width="33" xmlns="http://www.w3.org/2000/svg" xmlns:xlink="http://www.w3.org/1999/xlink"><linearGradient id="a" x1="0%" x2="92.288745%" y1="91.220947%" y2=".942898%"><stop offset="0" stop-color="#1764ff"/><stop offset=".483091128" stop-color="#16cde5"/><stop offset="1" stop-color="#b4ffa4"/></linearGradient><linearGradient id="b" x1="4.752879%" x2="79.627672%" y1="83.311954%" y2="22.101209%"><stop offset="0" stop-color="#1764ff"/><stop offset=".483091128" stop-color="#16cde5"/><stop offset="1" stop-color="#99f6af"/></linearGradient><g fill="none" fill-rule="evenodd"><ellipse cx="16.793242" cy="15.592058" fill="#000" fill-rule="nonzero" rx="15.655311" ry="15.592058"/><g transform="matrix(.92050484657 .39073113108 -.39073113108 .92050484657 12.49980013073 5.6855595297)"><path d="m13.1657896 2.17886403c-1.2874426-1.34252734-3.1025-2.17886403-5.11368666-2.17886403-3.90484847 0-7.07035357 3.15271519-7.07035357 7.04178648 0 2.02509868.85830887 3.85053862 2.23237925 5.13515632m3.84321935 1.7981598c.31336169.0482171.67593697.1084704.99475497.1084704 3.90484846 0 7.07035356-3.1527153 7.07035356-7.04178652 0-1.36930618-.3662453-3.10227411-1.063295-3.86887824" stroke="url(#a)" stroke-width="2.66286"/><path d="m2.87854443 12.3645556c3.97389547.0080388 6.00289108.0121433 6.08698692.0123134.12614374.0002552.26377009.063392.38199369.1246717.07881572.0408532.17131948.1132448.27751129.2171747.30344714.0890602.52063147.1893257.65155287.3007965.1963822.1672061.2617775.3084305.2621197.4770907.0002265.1124401-.0408101.2222718-.123111.3294952-.0772352-.1282207-.1585763-.2152281-.2440232-.2610223-.1281703-.0686913-.20681632-.069634-.44415273-.0701141-.15822428-.0003201-.29405495.022477-.40749207.0683913l-2.91621691 1.039945-1.24971928 2.0257439c-.41568914.5355892-.84488843.9274368-1.2875979 1.175543-.66406416.3721593-1.02823741.3994669-1.68942903.4799727-.44079441.0536705-.90983704.0193571-1.40712787-.1029402.25145628.0386427.57146468-.061222.96002518-.299594.15198748-.0932405.52409375-.3168205.79837853-.7941416.2846216-.4953097.80671399-1.7241134 1.56627714-3.6864112z" fill="#176dfd" fill-rule="nonzero" transform="matrix(.7193398 -.69465837 .69465837 .7193398 -9.06693 8.232228)"/></g><path d="m8.34876819 19.3955571 16.37900371-16.16043275-17.37970113 11.63156945z" fill="url(#b)" fill-rule="nonzero" transform="matrix(.92050484657 .39073113108 -.39073113108 .92050484657 7.64306433971 -1.62722666417)"/></g></svg>