<svg height="31" viewBox="0 0 34 31" width="34" xmlns="http://www.w3.org/2000/svg" xmlns:xlink="http://www.w3.org/1999/xlink"><linearGradient id="a" x1="5.864224%" x2="75.628324%" y1="89.410899%" y2="-.080876%"><stop offset="0" stop-color="#1764ff"/><stop offset=".673583571" stop-color="#16cde5"/><stop offset=".999196491" stop-color="#a2e7a2"/><stop offset="1" stop-color="#abe99e"/></linearGradient><path d="m9.52629496 17.8204069c.18740157-.0711174.42798467-.0564651.63817834-.0332358.1403703.0153671.3190892.0693306.5357948.1618904.5014259-.041098.8809322-.0167966 1.1388807.0729043.3867418.1343726.5640136.3051973.6602468.5528575.0643967.1651067.0658438.349869.0043414.5542869-.1874016-.1447364-.3577996-.226575-.5108321-.2455159-.229368-.0282325-.3469462.0150097-.6996808.1486676-.2351564.0893435-.4240051.199772-.5665461.331643l-3.74260479 3.1817001-.70619281 3.6866694c-.31366248 1.0231616-.72898489 1.8422626-1.24560545 2.4580179-.77529261.9234542-1.30095765 1.1700422-2.23760374 1.6632183-.62443073.328784-1.34111513.5442805-2.14932965.6464894.39542456-.0857697.81436476-.4141964 1.25645882-.9849225.17256863-.2230014.59874442-.762636.73513514-1.6199761.14145563-.8895037.21959991-2.9919345.2337093-6.3076498l-2.39533944-.8351829c5.90893808-2.2403771 8.92581401-3.3846884 9.05098958-3.4318618zm18.92025114-7.0493794c.8353479 2.3736776.0293041 5.781238-.9149394 7.9783729-2.2035965 5.1283159-7.266695 8.213525-12.58123 8.213525-1.7759736 0-3.5787189-.3441511-5.31381147-1.0717644-.60308577-.2526634-1.16782294-.5993161-1.62149394-.8777104l-.09478612-.0578945 2.53824213-4.0444008.0987657.0607536c.3284955.2019163.7007662.4302782.9608853.5389199 4.4831667 1.8797868 9.6772292-.1933393 11.5798255-4.6212023.7781869-1.8108137 1.0455416-3.8549925.7988083-4.5565176zm-26.04035329-2.5573321c2.94054054-6.8426386 10.96878059-10.04649587 17.89540329-7.14211795 3.2057246 1.34408334 5.7034475 3.77100969 7.1125771 6.88159236l6.5858268-1.2418744-34 13.34648669 1.33858268-7.1535539c.06873803-1.6017499.42436688-3.19349342 1.06761013-4.6905328zm16.01342839-2.76214309c-4.4828049-1.87978686-9.67686742.19369667-11.57946372 4.62120229-.26156629.6089651-.44824431 1.2347269-.56509896 1.8669214l16.19902108-3.05483236c-.9500319-1.52312769-2.3457757-2.71675661-4.0544584-3.43329133z" fill="url(#a)" fill-rule="evenodd"/></svg>