<svg height="66" viewBox="0 0 66 66" width="66" xmlns="http://www.w3.org/2000/svg" xmlns:xlink="http://www.w3.org/1999/xlink"><linearGradient id="a" x1="5.403625%" x2="92.77323%" y1="98.113251%" y2="0%"><stop offset="0" stop-color="#1764ff"/><stop offset=".483091128" stop-color="#16cde5"/><stop offset="1" stop-color="#abe99e"/></linearGradient><g fill="none" fill-rule="evenodd"><circle cx="33" cy="33" fill="url(#a)" fill-rule="nonzero" r="33"/><g transform="matrix(.92050484657 .39073113108 -.39073113108 .92050484657 24.24169610889 11.19428821164)"><path d="m27.838516 4.64655414c-2.7316579-2.86301755-6.5827931-4.64655414-10.8500698-4.64655414-8.28519247 0-15.00166797 6.72334833-15.00166797 15.0170188 0 4.3186406 1.82113448 8.2114973 4.73659654 10.9510192m8.15442963 3.8346802c.6648816.1028258 1.4341832.2313194 2.1106418.2313194 8.2851924 0 15.001668-6.7233484 15.001668-15.0170188 0-2.920125-.7770886-6.61577978-2.256068-8.25060763" stroke="#000" stroke-width="6.447548"/><path d="m6.0238627 26.3963334c8.4523373-.0043198 12.7679403-.0066169 12.9468092-.0066169.2683034-.000137.560691.1334353.8118194.2631616.167419.0864843.363782.239988.5890892.4605112.6449448.1878267 1.1063501.3999561 1.384216.6363879.4167989.3546479.5549487.6547293.5549487 1.0135272 0 .2391986-.0879985.4730706-.2636284.7016161-.1635864-.2723542-.3361279-.4570112-.5176245-.553971-.2722448-.1454397-.439518-.1470212-.9443243-.1467632-.3365375.000172-.625569.0494017-.8670946.147689l-6.2083294 2.2280495-2.6690428 4.3162081c-.8870479 1.1416277-1.80205678 1.9775395-2.74502666 2.5077352-1.41445471.7952936-2.18918969.8553496-3.59596242 1.0301779-.93784848.1165522-1.93530597.0460839-2.99237244-.211405.5346332.0808512 1.21582172-.1333211 2.04356557-.642517.32377634-.1991746 1.11644268-.6768141 1.70241284-1.6937229.60805331-1.0552325 1.72515518-3.6721456 3.35130559-7.8507393z" fill="#000" fill-rule="nonzero" transform="matrix(.7193398 -.69465837 .69465837 .7193398 -19.386216 17.45567)"/></g><path d="m14.9692461 41.2051252 34.7211722-34.34297011-36.8682763 24.69244541z" fill="#000" fill-rule="nonzero" transform="matrix(.92050484657 .39073113108 -.39073113108 .92050484657 16.35009469407 -3.22964832932)"/></g></svg>