<svg height="16" viewBox="0 0 95 16" width="95" xmlns="http://www.w3.org/2000/svg" xmlns:xlink="http://www.w3.org/1999/xlink"><linearGradient id="a" x1="5.864224%" x2="103.932288%" y1="51.344736%" y2="47.998569%"><stop offset="0" stop-color="#1764ff"/><stop offset=".874426265" stop-color="#16cde5"/><stop offset=".999196491" stop-color="#a2e7a2"/><stop offset="1" stop-color="#abe99e"/></linearGradient><path d="m41.3242-.0004c.591 0 1.174.062 1.729.184.561.124 1.082.289 1.546.489.475.205.904.431 1.277.673.171.113.332.225.482.34l-2.187 2.019c-.28-.235-.602-.436-.965-.602-.56-.259-1.248-.389-2.042-.389-.938 0-1.659.159-2.202.487-.634.381-.955.848-.955 1.39 0 .58.36 1.077 1.07 1.481.612.347 1.503.513 2.727.513 1.121 0 2.075.135 2.834.398.743.259 1.347.603 1.798 1.025.452.423.772.887.978 1.412.209.532.314 1.091.314 1.664 0 .589-.114 1.181-.338 1.76-.219.563-.581 1.084-1.077 1.546-.506.47-1.187.859-2.021 1.156-.853.301-1.913.454-3.151.454-.592 0-1.175-.062-1.731-.184-.56-.124-1.081-.29-1.546-.489-.469-.201-.898-.428-1.275-.674-.173-.111-.77-.469-.919-.584l2.186-2.019c.28.236 1.038.682 1.401.848.557.257 1.245.388 2.044.388.938 0 1.657-.16 2.201-.486.634-.382.955-.85.955-1.391 0-.578-.36-1.077-1.071-1.481-.612-.347-1.503-.514-2.726-.514-1.137 0-2.098-.133-2.857-.397-.747-.26-1.352-.6-1.802-1.017-.441-.405-.764-.877-.96-1.401-.202-.54-.305-1.098-.305-1.659 0-.59.114-1.187.338-1.773.219-.571.581-1.095 1.078-1.557.504-.47 1.184-.858 2.021-1.156.852-.301 1.911-.454 3.151-.454zm16.378.0003c1.16 0 2.231.182 3.185.543.741.281 1.41.661 1.995 1.135l-2.207 2.036c-.326-.263-.689-.481-1.087-.644-1.155-.478-2.763-.475-3.909.027-.589.259-1.094.635-1.501 1.118-.399.475-.705 1.046-.909 1.695-.2.634-.302 1.337-.302 2.09 0 1.556.407 2.834 1.21 3.795.827.99 1.997 1.491 3.479 1.491.765 0 1.458-.137 2.062-.408.399-.181.757-.41 1.069-.684l1.931 2.252c-.576.44-1.233.793-1.959 1.053-1.914.685-4.447.666-6.326-.074-.958-.378-1.788-.923-2.467-1.619-.68-.697-1.216-1.544-1.589-2.516-.376-.977-.567-2.092-.567-3.313 0-1.206.191-2.313.567-3.291.373-.971.907-1.811 1.587-2.502.679-.689 1.513-1.23 2.478-1.608.976-.383 2.073-.576 3.26-.576zm-45.2812.4648v2.712h-9.174v3.223h8.277l-2.918 2.713h-5.335v6.423h-3.271v-15.071zm5.7398.0001v15.071h-3.248v-11.997zm6.6111-.0001v12.357h9.15v2.713h-12.421v-11.995zm49.3683-.0007 4.184 15.071h-3.386l-1.281-4.614h-5.17l-1.281 4.614h-3.386l2.446-8.985 4.217-3.023-1.265 4.681h3.708l-2.15-7.744zm9.8195-.0001 7.77 10.798v-7.706l3.271-3.092v15.071h-3.496l-7.827-10.865v10.865h-3.271v-15.071z" fill="url(#a)" fill-rule="evenodd"/></svg>