<svg height="12" viewBox="0 0 12 12" width="12" xmlns="http://www.w3.org/2000/svg"><g fill="none" fill-rule="evenodd"><path d="m0 0h12v12h-12z"/><g fill-rule="nonzero"><path d="m6 0c3.3 0 6 2.7 6 6s-2.7 6-6 6-6-2.7-6-6 2.7-6 6-6zm0 1c-2.74771525 0-5 2.25228475-5 5s2.25228475 5 5 5 5-2.25228475 5-5-2.25228475-5-5-5z" fill="#dcdcdc"/><path d="m6 3c-1.65 0-3 1.35-3 3s1.35 3 3 3 3-1.35 3-3-1.35-3-3-3z" fill="#dcdcdc"/><path d="m6 5c-.55 0-1 .45-1 1s.45 1 1 1 1-.45 1-1-.45-1-1-1z" fill="#999"/></g></g></svg>