<svg height="28" viewBox="0 0 28 28" width="28" xmlns="http://www.w3.org/2000/svg" xmlns:xlink="http://www.w3.org/1999/xlink"><filter id="a"><feColorMatrix in="SourceGraphic" type="matrix" values="0 0 0 0 0.002548 0 0 0 0 0.002367 0 0 0 0 0.002367 0 0 0 1.000000 0"/></filter><g fill="none" fill-rule="evenodd" filter="url(#a)" transform="translate(-878 -22)"><g transform="translate(878.008511 22.001793)"><path d="m15.678042 7c3.0576783.7699021 5.321958 3.5385734 5.321958 6.8359161 0 3.892979-3.155972 7.048951-7.048951 7.048951-3.4923637 0-6.39144061-2.5395804-6.951049-5.872951.70293706.2525874 1.46109091.3904336 2.25174825.3904336 3.67681115 0 6.65734265-2.9805315 6.65734265-6.65734271 0-.59132867-.0771468-1.16542657-.2220419-1.71132867l-.0093987-.03367832zm1.4708811 1.90634965-.0665734-.04229371.0003916.01566434c-.072056 4.26344052-3.5503217 7.69745452-7.83099305 7.69745452-.14058741 0-.28039161-.0039161-.41980419-.010965l-.08772028-.0062657.03641958.0685314c1.00475831 1.8563659 2.92736264 3.0318388 5.03765034 3.08l.1327553.0015665c3.2440839 0 5.8741258-2.630042 5.8741258-5.8741259 0-2.0414546-1.0502937-3.87300701-2.6762517-4.92956645z" fill="#000" fill-rule="nonzero"/><rect height="27.5" rx="5" stroke="#000" stroke-opacity=".2" stroke-width=".5" width="27.5" x=".25" y=".25"/></g></g></svg>