<?xml version="1.0" encoding="UTF-8"?>
<svg width="28px" height="28px" viewBox="0 0 28 28" version="1.1" xmlns="http://www.w3.org/2000/svg" xmlns:xlink="http://www.w3.org/1999/xlink">
    <title>月亮</title>
    <defs>
        <filter id="filter-1">
            <feColorMatrix in="SourceGraphic" type="matrix" values="0 0 0 0 0.002548 0 0 0 0 0.002367 0 0 0 0 0.002367 0 0 0 1.000000 0"></feColorMatrix>
        </filter>
    </defs>
    <g id="页面-1" stroke="none" stroke-width="1" fill="none" fill-rule="evenodd">
        <g id="月亮" transform="translate(-878.000000, -22.000000)" filter="url(#filter-1)">
            <g transform="translate(878.000000, 22.000000)">
                <g id="编组-16" transform="translate(0.008511, 0.001793)">
                    <path d="M15.678042,7 C18.7357203,7.7699021 21,10.5385734 21,13.8359161 C21,17.7288951 17.844028,20.8848671 13.951049,20.8848671 C10.4586853,20.8848671 7.55960839,18.3452867 7,15.0119161 C7.70293706,15.2645035 8.46109091,15.4023497 9.25174825,15.4023497 C12.9285594,15.4023497 15.9090909,12.4218182 15.9090909,8.74500699 C15.9090909,8.15367832 15.8319441,7.57958042 15.687049,7.03367832 L15.6776503,7 L15.678042,7 Z M17.1489231,8.90634965 L17.0823497,8.86405594 L17.0827413,8.87972028 C17.0106853,13.1431608 13.5324196,16.5771748 9.25174825,16.5771748 C9.11116084,16.5771748 8.97135664,16.5732587 8.83194406,16.5662098 L8.74422378,16.5599441 L8.78064336,16.6284755 C9.78540167,18.4848414 11.708006,19.6603143 13.8182937,19.7084755 L13.951049,19.710042 C17.1951329,19.710042 19.8251748,17.08 19.8251748,13.8359161 C19.8251748,11.7944615 18.7748811,9.96290909 17.1489231,8.90634965 L17.1489231,8.90634965 Z" id="形状" fill="#000000" fill-rule="nonzero"></path>
                    <rect id="矩形备份-2" stroke-opacity="0.2" stroke="#000000" stroke-width="0.5" x="0.25" y="0.25" width="27.5" height="27.5" rx="5"></rect>
                </g>
            </g>
        </g>
    </g>
</svg>