<svg height="28" viewBox="0 0 28 28" width="28" xmlns="http://www.w3.org/2000/svg" xmlns:xlink="http://www.w3.org/1999/xlink"><filter id="a"><feColorMatrix in="SourceGraphic" type="matrix" values="0 0 0 0 0.000000 0 0 0 0 0.000000 0 0 0 0 0.000000 0 0 0 1.000000 0"/></filter><g fill="none" fill-rule="evenodd"><rect height="27.5" rx="5" stroke="#000" stroke-opacity=".2" stroke-width=".5" width="27.5" x=".25" y=".25"/><g filter="url(#a)"><path d="m6.98138298 0c-3.85651596 0-6.98138298 3.12486702-6.98138298 6.98138298 0 3.85651592 3.12486702 6.98138302 6.98138298 6.98138302 3.85651592 0 6.98138302-3.1248671 6.98138302-6.98138302 0-3.85651596-3.1248671-6.98138298-6.98138302-6.98138298zm6.01702132 6.51595745h-1.844016c-.0800532-2.01529256-.6683511-3.79601064-1.55824468-4.98470745 1.89614358.91130319 3.23191488 2.78324468 3.40226068 4.98470745zm-2.7823139 0h-2.76928189v-5.51622341c1.49587766.39840426 2.65199469 2.68457447 2.76928189 5.51622341zm-3.70013295-5.51622341v5.51622341h-2.76928192c.11728724-2.83164894 1.27340426-5.11781915 2.76928192-5.51622341zm-2.14840426.53151596c-.89082447 1.18869681-1.47819149 2.96941489-1.55824468 4.98470745h-1.84494681c.17034575-2.20146277 1.50611702-4.07340426 3.40319149-4.98470745zm-3.40319149 5.91555851h1.84401596c.08005319 2.01529255.66835106 3.79601059 1.55824468 4.98470749-1.89614362-.9113032-3.23191489-2.78324472-3.40226064-4.98470749zm2.78231383 0h2.76928192v5.51622339c-1.49587766-.3984042-2.65199468-2.6845745-2.76928192-5.51622339zm3.70013298 5.51622339v-5.51622339h2.76928189c-.1172872 2.83164889-1.27340423 5.11781919-2.76928189 5.51622339zm2.14840426-.5315159c.89082443-1.1886969 1.47819153-2.96941494 1.55824463-4.98470749h1.844016c-.1694149 2.20146277-1.5051862 4.07340429-3.40226063 4.98470749z" fill="#000" fill-rule="nonzero" transform="translate(7 7)"/></g></g></svg>