<?xml version="1.0" encoding="UTF-8"?>
<svg width="28px" height="28px" viewBox="0 0 28 28" version="1.1" xmlns="http://www.w3.org/2000/svg" xmlns:xlink="http://www.w3.org/1999/xlink">
    <title>编组 2</title>
    <defs>
        <filter id="filter-1">
            <feColorMatrix in="SourceGraphic" type="matrix" values="0 0 0 0 0.000000 0 0 0 0 0.000000 0 0 0 0 0.000000 0 0 0 1.000000 0"></feColorMatrix>
        </filter>
    </defs>
    <g id="页面-1" stroke="none" stroke-width="1" fill="none" fill-rule="evenodd">
        <g id="切图" transform="translate(-802.000000, -22.000000)">
            <g id="编组-2" transform="translate(802.000000, 22.000000)">
                <rect id="矩形" stroke-opacity="0.2" stroke="#000000" stroke-width="0.5" x="0.25" y="0.25" width="27.5" height="27.5" rx="5"></rect>
                <g filter="url(#filter-1)" id="地球-全球">
                    <g transform="translate(7.000000, 7.000000)">
                        <path d="M6.98138298,0 C3.12486702,0 0,3.12486702 0,6.98138298 C0,10.8378989 3.12486702,13.962766 6.98138298,13.962766 C10.8378989,13.962766 13.962766,10.8378989 13.962766,6.98138298 C13.962766,3.12486702 10.8378989,0 6.98138298,0 Z M12.9984043,6.51595745 L11.1543883,6.51595745 C11.0743351,4.50066489 10.4860372,2.71994681 9.59614362,1.53125 C11.4922872,2.44255319 12.8280585,4.31449468 12.9984043,6.51595745 Z M10.2160904,6.51595745 L7.44680851,6.51595745 L7.44680851,0.999734043 C8.94268617,1.3981383 10.0988032,3.68430851 10.2160904,6.51595745 Z M6.51595745,0.999734043 L6.51595745,6.51595745 L3.74667553,6.51595745 C3.86396277,3.68430851 5.02007979,1.3981383 6.51595745,0.999734043 Z M4.36755319,1.53125 C3.47672872,2.71994681 2.8893617,4.50066489 2.80930851,6.51595745 L0.964361702,6.51595745 C1.13470745,4.31449468 2.47047872,2.44255319 4.36755319,1.53125 Z M0.964361702,7.44680851 L2.80837766,7.44680851 C2.88843085,9.46210106 3.47672872,11.2428191 4.36662234,12.431516 C2.47047872,11.5202128 1.13470745,9.64827128 0.964361702,7.44680851 Z M3.74667553,7.44680851 L6.51595745,7.44680851 L6.51595745,12.9630319 C5.02007979,12.5646277 3.86396277,10.2784574 3.74667553,7.44680851 Z M7.44680851,12.9630319 L7.44680851,7.44680851 L10.2160904,7.44680851 C10.0988032,10.2784574 8.94268617,12.5646277 7.44680851,12.9630319 Z M9.59521277,12.431516 C10.4860372,11.2428191 11.0734043,9.46210106 11.1534574,7.44680851 L12.9974734,7.44680851 C12.8280585,9.64827128 11.4922872,11.5202128 9.59521277,12.431516 Z" id="形状" fill="#000000" fill-rule="nonzero"></path>
                    </g>
                </g>
            </g>
        </g>
    </g>
</svg>