<svg height="16" viewBox="0 0 16 16" width="16" xmlns="http://www.w3.org/2000/svg"><path fill="currentColor" d="m1 8.69861983h3.85357223c.12591452 2.28356857.8653765 4.40485337 2.05748073 6.20415567-3.14057488-.4846855-5.5939417-3.032393-5.91105296-6.20415567zm0-1.39719075c.31711126-3.17183258 2.77047808-5.71955402 5.91105296-6.20419758-1.19210423 1.79926033-1.93156621 3.92058012-2.05748073 6.20419758zm14 0h-3.8536215c-.1259215-2.28361746-.8653413-4.40493725-2.05744553-6.20419758 3.14058193.48464356 5.59394173 3.032365 5.91106703 6.20419758zm0 1.39719075c-.3171253 3.17176267-2.7704851 5.71947017-5.91106703 6.20415567 1.19210423-1.7993023 1.93152403-3.9205871 2.05744553-6.20415567zm-8.73707018 0h3.47411222c-.12071585 1.94405117-.74188193 4.75168607-1.73708425 6.30138017-.99520232-1.5496941-1.61630508-4.357329-1.73702797-6.30138017zm0-1.39719075c.12072289-1.9441071.74182565-4.75172798 1.73702797-6.30142908.99520232 1.5497011 1.6163684 4.35732198 1.73708425 6.30142908z"/></svg>