<svg height="14" viewBox="0 0 30 14" width="30" xmlns="http://www.w3.org/2000/svg" xmlns:xlink="http://www.w3.org/1999/xlink"><linearGradient id="a" x1="0%" x2="97.050251%" y1="47.978506%" y2="53.469339%"><stop offset="0" stop-color="#f55520"/><stop offset="1" stop-color="#e73b3b"/></linearGradient><g fill="none" fill-rule="evenodd"><path d="m4 0h22c2.209139-0 4 1.790861 4 4v6c0 2.209139-1.790861 4-4 4h-26v-10c-0-2.209139 1.790861-4 4-4z" fill="url(#a)"/><path d="m6.00746269 10.8v-4.9255618l3.06902985 4.9255618h.92350746v-7h-1.00746269v4.91573034l-3.06902985-4.91573034h-.92350746v7zm9.99253731 0v-.95365169h-3.0505495v-2.10393258h2.6021979v-.94382022h-2.6021979v-2.04494382h3.0505495v-.95365169h-4v7zm3.6383981 0 1.3568905-4.90589888 1.3663133 4.90589888h.8857479l1.7526502-7h-1.0742049l-1.1684335 5.00421348-1.3474676-5.00421348h-.819788l-1.3474676 5.00421348-1.1684335-5.00421348h-1.0742049l1.7526502 7z" fill="#fff" fill-rule="nonzero"/></g></svg>