<?xml version="1.0" encoding="UTF-8"?>
<svg width="30px" height="14px" viewBox="0 0 30 14" version="1.1" xmlns="http://www.w3.org/2000/svg" xmlns:xlink="http://www.w3.org/1999/xlink">
    <title>切片</title>
    <defs>
        <linearGradient x1="0%" y1="47.9785058%" x2="97.0502513%" y2="53.4693392%" id="linearGradient-1">
            <stop stop-color="#F55520" offset="0%"></stop>
            <stop stop-color="#E73B3B" offset="100%"></stop>
        </linearGradient>
    </defs>
    <g id="页面-1" stroke="none" stroke-width="1" fill="none" fill-rule="evenodd">
        <g id="编组-18">
            <path d="M4,0 L26,0 C28.209139,-2.36792184e-15 30,1.790861 30,4 L30,10 C30,12.209139 28.209139,14 26,14 L0,14 L0,14 L0,4 C-2.705415e-16,1.790861 1.790861,4.05812251e-16 4,0 Z" id="矩形" fill="url(#linearGradient-1)"></path>
            <path d="M6.00746269,10.8 L6.00746269,5.8744382 L9.07649254,10.8 L10,10.8 L10,3.8 L8.99253731,3.8 L8.99253731,8.71573034 L5.92350746,3.8 L5,3.8 L5,10.8 L6.00746269,10.8 Z M16,10.8 L16,9.84634831 L12.9494505,9.84634831 L12.9494505,7.74241573 L15.5516484,7.74241573 L15.5516484,6.79859551 L12.9494505,6.79859551 L12.9494505,4.75365169 L16,4.75365169 L16,3.8 L12,3.8 L12,10.8 L16,10.8 Z M19.6383981,10.8 L20.9952886,5.89410112 L22.3616019,10.8 L23.2473498,10.8 L25,3.8 L23.9257951,3.8 L22.7573616,8.80421348 L21.409894,3.8 L20.590106,3.8 L19.2426384,8.80421348 L18.0742049,3.8 L17,3.8 L18.7526502,10.8 L19.6383981,10.8 Z" id="NEW" fill="#FFFFFF" fill-rule="nonzero"></path>
        </g>
    </g>
</svg>