<svg height="40" viewBox="0 0 40 40" width="40" xmlns="http://www.w3.org/2000/svg"><g fill="#1c6afd" fill-rule="evenodd"><rect fillOpacity=".05" height="40" rx="5" width="40"/><path d="m11.3991828 23.5202281 8.5768491 3.7282855 8.6261415-3.7282855c.5063657-.2195745 1.095632.0134433 1.3152065.5220496.2195745.5063657-.0134434 1.095632-.5220496 1.3152065l-9.0227199 3.8985678c-.1277117.0537734-.2621451.0829006-.3965785.0829006-.1366739 0-.2711073-.0268867-.398819-.0829006l-8.9756681-3.9030489c-.5063657-.2195745-.73938359-.8088408-.5175685-1.3152065.2195745-.5063657.8088408-.7393836 1.3152065-.5175685zm0-4.2279296 8.5768491 3.7282856 8.6261415-3.7282856c.5063657-.2195745 1.095632.0134434 1.3152065.5220496.2195745.5063657-.0134434 1.095632-.5220496 1.3152065l-9.0227199 3.8963273c-.1277117.0560139-.2621451.0829006-.3965785.0829006-.1366739 0-.2711073-.0268867-.398819-.0829006l-8.9756681-3.9008084c-.5063657-.2195745-.73938359-.8088408-.5175685-1.3152065.2195745-.5063657.8088408-.7393835 1.3152065-.5175685zm8.5813303-8.2922985.4212245.1658012 8.8815649 3.8492755c.3831351.1658012.6295962.5466957.6318368.9656798 0 .4212245-.2464612.7998785-.6295963.9679202l-9.289346 4.0150768-.4324274-.1702823-8.8479565-3.8447945c-.3831351-.1658011-.6295963-.5466957-.6295963-.9679202 0-.4212246.2464612-.7998786.6295963-.9656798zm.020165 2.1688584-6.4886508 2.8141386 6.4640046 2.8096575 6.5065753-2.811898z" fill-rule="nonzero" opacity=".5"/></g></svg>