<svg height="40" viewBox="0 0 40 40" width="40" xmlns="http://www.w3.org/2000/svg"><g fill="#1c6afd" fill-rule="evenodd"><rect fillOpacity=".05" height="40" rx="5" width="40"/><path d="m21.495421 10c1.0827404 0 1.9615216.8809471 1.9615216 1.9615176v3.2894477c.0021659 1.0805705-.8787812 1.9615175-1.9615216 1.9615175l-.914421-.0004828v1.768l3.6852816.0008864c.8874566 0 1.6100067.7225502 1.6100067 1.6100067l-.0002883 1.6481069.9029336.0009566c1.0827404 0 1.9615176.8809471 1.9615176 1.9615176v3.2655796c0 1.0805706-.8809471 1.9615176-1.9615176 1.9615176h-3.2655796c-1.0827404 0-1.9615176-.880947-1.9615176-1.9615176v-3.2655796c0-1.0827404.880947-1.9615176 1.9615176-1.9615176l.901646-.0009566.0009992-1.6481069c0-.084623-.0694342-.1518874-.1518874-.1518874h-8.7877724c-.084623 0-.1518874.0694343-.1518874.1518874l-.000452 1.6481069.9030972.0009566c1.0827404 0 1.9615176.8809471 1.9615176 1.9615176v3.2655796c0 1.0805706-.880947 1.9615176-1.9615176 1.9615176h-3.2655796c-1.0827404 0-1.9615176-.880947-1.9615176-1.9615176v-3.2655796c0-1.0827404.8809471-1.9615176 1.9615176-1.9615176l.9044824-.0009566.0003327-1.6481069c0-.8874565.7225502-1.6100067 1.6100067-1.6100067l3.6466606-.0008864v-1.768l-.9148568.0004828c-1.0827403 0-1.9615176-.880947-1.9615176-1.9615175v-3.2894477c0-1.0827404.8809471-1.9615176 1.9615176-1.9615176zm-8.5339034 14.1819458-.0195284 3.2829382 3.285108.0195284c.0108491 0 .0195284-.0086793.0195284-.0195284v-3.2634098zm10.5518364 0-.0195284 3.2829382 3.2829382.0195284c.0108491 0 .0195284-.0086793.0195284-.0195284v-3.2634098zm-5.3052108-12.2399566-.0195284 3.3089761 3.3068062.0195283c.0108491 0 .0195284-.0086792.0195284-.0195283v-3.2894477z" fill-rule="nonzero" opacity=".5"/></g></svg>