<svg height="41" viewBox="0 0 41 41" width="41" xmlns="http://www.w3.org/2000/svg" xmlns:xlink="http://www.w3.org/1999/xlink"><linearGradient id="a" x1="63.297913%" x2="30.213447%" y1="76.652238%" y2="27.566747%"><stop offset="0" stop-color="#1764ff"/><stop offset="1" stop-color="#4093ed"/></linearGradient><g fill="none" fill-rule="evenodd" opacity=".13"><g fill="url(#a)" transform="translate(25.283019 23.396226)"><path d="m7.34217095 5.48748382 2.18963071-3.93030835 4.50758064 2.62742557v8.34829526l-7.13458478 3.9868044-1.20025505-.8319903 4.69726983-8.25246605z"/><path d="m1.63762848 3.93030835 2.1896307-3.93030835 4.5075806 2.62742557v8.34829523l-7.13458473 3.9868044-1.20025505-.8319902 4.69726983-8.25246612z" transform="matrix(-1 0 0 -1 8.33484 14.962526)"/></g><path d="m10.908293 0h27.204914v8.775779h-27.204914z" fill="#1c6afd"/><path d="m10.908293 11.154015h27.204914v8.775779h-27.204914z" fill="#1c6afd"/><path d="m10.908293 22.562527h8.775779v8.775779h-8.775779z" fill="#529bf4" opacity=".8"/><path d="m0 11.154015h8.775779v8.775779h-8.775779z" fill="#57a0fc"/></g></svg>