<svg height="40" viewBox="0 0 40 40" width="40" xmlns="http://www.w3.org/2000/svg"><g fill="#1c6afd" fill-rule="evenodd"><rect fill-opacity=".05" height="40" rx="5" width="40"/><path d="m28.652422 25.1176865c0 2.7844278-3.7961741 4.8823135-8.8272738 4.8823135-5.0310996 0-8.8251482-2.0978857-8.8251482-4.8823135v-9.2332475c0-2.7844278 3.7940486-4.884439 8.8251482-4.884439 4.9821778 0 8.7512463 2.0593692 8.8240753 4.803408.0020435.0265724.0031985.053666.0031985.081031zm-15.7523208-1.5198361.0001114 1.5198361c0 1.4092181 2.9608457 2.9842265 6.9249356 2.9842265 3.96409 0 6.9270612-1.5771339 6.9270612-2.9842265l.0002525-1.5192315c-1.5908746 1.1027065-4.0583005 1.7849212-6.9273137 1.7849212-2.8684231 0-5.3347331-.682625-6.925047-1.7855258zm6.925047-2.8289724c-2.8684231 0-5.3347331-.6826251-6.925047-1.7855259l.0001114 1.5177107c0 1.409218 2.9608457 2.9842264 6.9249356 2.9842264 3.96409 0 6.9270612-1.5771339 6.9270612-2.9842264l.0007887-1.5190368c-1.5904487 1.1036797-4.0582773 1.786852-6.9278499 1.786852zm0-7.8686654c-3.9640899 0-6.9249356 1.5750083-6.9249356 2.9842264 0 1.409218 2.9608457 2.9842264 6.9249356 2.9842264 3.96409 0 6.9249368-1.5750084 6.9249368-2.9842264.0021244-1.4092181-2.9608468-2.9842264-6.9249368-2.9842264z" fill-rule="nonzero" opacity=".5"/></g></svg>