<svg height="28" viewBox="0 0 28 28" width="28" xmlns="http://www.w3.org/2000/svg" xmlns:xlink="http://www.w3.org/1999/xlink"><linearGradient id="a" x1="11.000136%" x2="86.397026%" y1="13.255991%" y2="85.045305%"><stop offset="0" stop-color="#398bef"/><stop offset="1" stop-color="#1c6afd"/></linearGradient><filter id="b"><feColorMatrix in="SourceGraphic" type="matrix" values="0 0 0 0 1.000000 0 0 0 0 1.000000 0 0 0 0 1.000000 0 0 0 1.000000 0"/></filter><g fill="none" fill-rule="evenodd"><rect fill="url(#a)" height="28" rx="5" width="28"/><g filter="url(#b)"><g fill="#fff" fill-rule="nonzero" transform="translate(7.567568 9.081081)"><path d="m12.5017174 6.12072502h-12.01289085c-.26997145 0-.48882655-.2188551-.48882655-.48882655v-.9776531c0-.26997145.2188551-.48882655.48882655-.48882655h12.01289085z"/><path d="m7.84277797 10.143414-.68970236-.68970233c-.09160529-.09138316-.14308731-.21545871-.14308731-.34485118 0-.12939246.05148202-.25346802.14308731-.34485118l3.62093739-3.62093739-3.62093739-3.62093739c-.19030641-.19051801-.19030641-.49918436 0-.68970236l.68970236-.68970236c.190518-.19030641.49918435-.19030641.68970236 0l5.00034207 5.00034211-5.00034207 5.00034208c-.19051801.1903064-.49918436.1903064-.68970236 0z"/></g></g></g></svg>