<?xml version="1.0" encoding="UTF-8"?>
<svg width="28px" height="28px" viewBox="0 0 28 28" version="1.1" xmlns="http://www.w3.org/2000/svg" xmlns:xlink="http://www.w3.org/1999/xlink">
    <title>编组 8备份 7</title>
    <defs>
        <linearGradient x1="11.0001364%" y1="13.2559906%" x2="86.3970258%" y2="85.0453048%" id="linearGradient-1">
            <stop stop-color="#398BEF" offset="0%"></stop>
            <stop stop-color="#1C6AFD" offset="100%"></stop>
        </linearGradient>
        <filter id="filter-2">
            <feColorMatrix in="SourceGraphic" type="matrix" values="0 0 0 0 1.000000 0 0 0 0 1.000000 0 0 0 0 1.000000 0 0 0 1.000000 0"></feColorMatrix>
        </filter>
    </defs>
    <g id="页面-1" stroke="none" stroke-width="1" fill="none" fill-rule="evenodd">
        <g id="切图" transform="translate(-322.000000, -201.000000)">
            <g id="编组-8备份-7" transform="translate(322.000000, 201.000000)">
                <rect id="矩形" fill="url(#linearGradient-1)" x="0" y="0" width="28" height="28" rx="5"></rect>
                <g filter="url(#filter-2)" id="右箭头">
                    <g transform="translate(7.567568, 9.081081)">
                        <path d="M12.5017174,6.12072502 L0.488826548,6.12072502 C0.2188551,6.12072502 -2.68854008e-14,5.90186992 -2.68854008e-14,5.63189847 L-2.68854008e-14,4.65424537 C-2.68854008e-14,4.38427392 0.2188551,4.16541882 0.488826548,4.16541882 L12.5017174,4.16541882 L12.5017174,6.12072502 Z" id="路径" fill="#FFFFFF" fill-rule="nonzero"></path>
                        <path d="M7.84277797,10.143414 L7.15307561,9.45371167 C7.06147032,9.36232851 7.0099883,9.23825296 7.0099883,9.10886049 C7.0099883,8.97946803 7.06147032,8.85539247 7.15307561,8.76400931 L10.774013,5.14307192 L7.15307561,1.52213453 C6.9627692,1.33161652 6.9627692,1.02295017 7.15307561,0.832432167 L7.84277797,0.142729806 C8.03329597,-0.047576602 8.34196232,-0.047576602 8.53248033,0.142729806 L13.5328224,5.14307192 L8.53248033,10.143414 C8.34196232,10.3337204 8.03329597,10.3337204 7.84277797,10.143414 L7.84277797,10.143414 Z" id="路径" fill="#FFFFFF" fill-rule="nonzero"></path>
                    </g>
                </g>
            </g>
        </g>
    </g>
</svg>