<svg height="34" viewBox="0 0 34 34" width="34" xmlns="http://www.w3.org/2000/svg" xmlns:xlink="http://www.w3.org/1999/xlink"><linearGradient id="a" x1="11.000136%" x2="86.397026%" y1="13.255991%" y2="85.045305%"><stop offset="0" stop-color="#398bef"/><stop offset="1" stop-color="#1c6afd"/></linearGradient><filter id="b"><feColorMatrix in="SourceGraphic" type="matrix" values="0 0 0 0 0.047059 0 0 0 0 0.050980 0 0 0 0 0.054902 0 0 0 1.000000 0"/></filter><g fill="none" fill-rule="evenodd"><rect fill="url(#a)" height="34" rx="5" width="34"/><g filter="url(#b)"><g fill="#2c2c2c" fill-rule="nonzero" transform="translate(9.189189 11.027027)"><path d="m15.1806569 7.43230895h-14.58708181c-.32782247 0-.59357509-.26575262-.59357509-.5935751v-1.18715018c0-.32782248.26575262-.5935751.59357509-.5935751h14.58708181z"/><path d="m9.52337325 12.3170028-.83749573-.8374958c-.11123499-.1109652-.17374888-.2616284-.17374888-.4187478 0-.1571195.06251389-.3077826.17374888-.4187479l4.39685258-4.39685254-4.39685258-4.39685255c-.23108635-.23134329-.23108635-.60615243 0-.83749572l.83749573-.83749573c.23134329-.23108635.60615245-.23108635.83749575 0l6.071844 6.071844-6.071844 6.07184404c-.2313433.2310863-.60615246.2310863-.83749575 0z"/></g></g></g></svg>