<svg height="80" viewBox="0 0 80 80" width="80" xmlns="http://www.w3.org/2000/svg" xmlns:xlink="http://www.w3.org/1999/xlink"><linearGradient id="a" x1="92.85473%" x2="-13.765448%" y1="76.652238%" y2="27.566747%"><stop offset="0" stop-color="#1764ff"/><stop offset="1" stop-color="#4093ed"/></linearGradient><g fill="none" fill-rule="evenodd"><path d="m-450-451h1507v1024h-1507z" fill="#fff"/><g><circle cx="40" cy="40" fill="url(#a)" r="40"/><path d="m57.9642857 26.2857143 21.3027284 21.3759189c-2.4749769 12.7589692-11.0139346 23.3535752-22.4967429 28.6636878l-22.1696275-22.1710394z" fill="#000" opacity=".2"/><path d="m34.0020037 53.3235671-11.1453167-15.4660161c-.1614447-.2240318-.1107078-.5365222.113324-.6979668.0851264-.0613448.1873944-.0943546.2923214-.0943546h4.9913138c.6461066 0 1.2524139.3121277 1.6278035.8379949l6.0258439 8.441348c.1604394.2247528.4726994.276889.6974522.1164496.0442428-.0315827.0830394-.0701687.1148624-.1142389l14.3363581-19.8537809c.0939995-.1301757.2447971-.207288.4053637-.207288h5.461491c.2761424 0 .5.2238576.5.5 0 .1024357-.0314625.2023998-.0901316.2863702l-18.3249675 26.2276779c-.3741428.5354932-.9862235.8545192-1.6394737.8545192h-1.7436628c-.6429456 0-1.2466882-.3090986-1.6225817-.8307145z" fill="#fff"/></g></g></svg>