<svg height="28" viewBox="0 0 28 28" width="28" xmlns="http://www.w3.org/2000/svg" xmlns:xlink="http://www.w3.org/1999/xlink"><filter id="a"><feColorMatrix in="SourceGraphic" type="matrix" values="0 0 0 0 0.002548 0 0 0 0 0.002367 0 0 0 0 0.002367 0 0 0 1.000000 0"/></filter><g fill="none" fill-rule="evenodd" filter="url(#a)" transform="translate(-911 -22)"><g transform="translate(911.008511 22.001793)"><rect height="27.5" rx="5" stroke="#000" stroke-opacity=".2" stroke-width=".5" width="27.5" x=".25" y=".25"/><g fill="#333" fill-rule="nonzero" transform="translate(6 6)"><path d="m7.9245283 4.52830189c1.87270047 0 3.3962264 1.52352594 3.3962264 3.39622641s-1.52352593 3.3962264-3.3962264 3.3962264-3.39622641-1.52352593-3.39622641-3.3962264 1.52352594-3.39622641 3.39622641-3.39622641m0-1.13207547c-2.50100236 0-4.52830188 2.02747641-4.52830188 4.52830188 0 2.5008255 2.02729952 4.5283019 4.52830188 4.5283019 2.5010024 0 4.5283019-2.0274764 4.5283019-4.5283019 0-2.50082547-2.0272995-4.52830188-4.5283019-4.52830188zm-6.22641509 5.09433962h-1.13207547c-.31255897 0-.56603774-.25347878-.56603774-.56603774s.25347877-.56603773.56603774-.56603773h1.13207547c.31255896 0 .56603773.25347877.56603773.56603773s-.25347877.56603774-.56603773.56603774zm13.58490569 0h-1.1320755c-.312559 0-.5660377-.25347878-.5660377-.56603774s.2534787-.56603773.5660377-.56603773h1.1320755c.3125589 0 .5660377.25347877.5660377.56603773s-.2534788.56603774-.5660377.56603774z"/><path d="m7.9245283 15.8490566c-.31255896 0-.56603773-.2534788-.56603773-.5660377v-1.1320755c0-.312559.25347877-.5660377.56603773-.5660377s.56603774.2534787.56603774.5660377v1.1320755c0 .3125589-.25347878.5660377-.56603774.5660377zm0-13.58490566c-.31255896 0-.56603773-.25347877-.56603773-.56603773v-1.13207547c0-.31255897.25347877-.56603774.56603773-.56603774s.56603774.25347877.56603774.56603774v1.13207547c0 .31255896-.25347878.56603773-.56603774.56603773z"/><path d="m3.35589623 3.92193415c-.14487029 0-.28974057-.05518887-.40011793-.16592l-.63466981-.63466981c-.22110849-.22110849-.22110849-.57930425 0-.80041274s.57930425-.22110849.80041274 0l.63466981.63466982c.22110849.22110849.22110849.57930424 0 .80041273-.1060606.10633422-.25010892.16604139-.40029481.16592zm9.77193397 9.77193385c-.1448703 0-.2897406-.0551888-.4001179-.1659199l-.6346698-.6346698c-.2211085-.2211085-.2211085-.5793042 0-.8004127.2211084-.2211085.5793042-.2211085.8004127 0l.6346698.6346698c.2211085.2211085.2211085.5793042 0 .8004127-.1060794.1063061-.2501155.1660082-.4002948.1659199z"/><path d="m2.72122642 13.6938682c-.14487029 0-.28974057-.055189-.40011793-.1659201-.22110849-.2211085-.22110849-.5793042 0-.8004127l.63466981-.6346698c.22110849-.2211085.57930425-.2211085.80041274 0s.22110849.5793042 0 .8004127l-.63466981.6346698c-.10604175.1063624-.25010232.1660747-.40029481.1659201zm9.77193398-9.77193394c-.1448703 0-.2897406-.05518898-.4001179-.16592011-.2211085-.22110849-.2211085-.57930424 0-.80041273l.6346698-.63466982c.2211085-.22110849.5793042-.22110849.8004127 0s.2211085.57930425 0 .80041274l-.6346698.63466981c-.1060418.10636239-.2501023.16607464-.4002948.16592011z"/></g></g></g></svg>