<svg height="16" viewBox="0 0 16 16" width="16" xmlns="http://www.w3.org/2000/svg"><path d="m15 4.34320665c-.514842.22080109-1.0751112.37971096-1.6522053.44160218.5956015-.3529472 1.0481914-.90996814 1.2618676-1.57237142-.5501743.32618344-1.1726956.56538462-1.8204543.68916705-.5249369-.55702094-1.27028-.90160446-2.0963826-.90160446-1.58995315 0-2.86864561 1.28131543-2.86864561 2.85368685 0 .22080109.02691984.44160218.07066458.6540396-2.38072347-.12378244-4.50402596-1.25455167-5.91563514-2.98583296-.24900853.42487483-.3903377.90996814-.3903377 1.44022531 0 .99025944.50642952 1.8634274 1.27869246 2.37695721-.47109722-.01840009-.9152746-.1505462-1.29719985-.36298361v.03512745c0 1.38669776.98593919 2.53586709 2.29996395 2.8001593-.24059609.06189122-.49801707.09701867-.75543805.09701867-.1867564 0-.36341786-.0184001-.54176181-.04349113.36341786 1.13076921 1.42170412 1.95208241 2.6818892 1.97884611-.98593919.7677857-2.22088692 1.2194243-3.56183151 1.2194243-.24059609 0-.46268478-.0083637-.69318592-.0351275 1.2719625.8112768 2.78115611 1.2796427 4.40644153 1.2796427 5.27628887 0 8.16344187-4.34576695 8.16344187-8.11778561 0-.12378243 0-.24756486-.0084124-.37134729.5585867-.40647474 1.0481913-.90996814 1.438529-1.47535275z"/></svg>