<svg height="20" viewBox="0 0 20 20" width="20" xmlns="http://www.w3.org/2000/svg"><g fill="none" fill-rule="evenodd"><circle cx="10" cy="10" fill="#000" opacity=".300759" r="10"/><path d="m9.99928831 3.63636364c.21493179 0 .41562969.10817759.53234759.28752465l2.3884474 3.6524172 2.5108589-1.32090536c.2092383-.10960099.4626016-.09536709.6576059.03843151.1950044.1337986.2989118.36581108.270444.60067033l-.822719 6.85219653c-.1152946.946554-.9195096 1.6610954-1.8746039 1.6610954h-7.3261852c-.9536709 0-1.7593093-.7145414-1.87318045-1.6625188l-.82129568-6.85219652c-.02846779-.23485925.07543964-.46544834.27044398-.60067033.19500435-.1337986.44836766-.1480325.65760591-.03843151l2.51085889 1.32090536 2.38702402-3.65099381c.11814132-.17934706.31741584-.28752465.53234764-.28752465zm0 1.79916419-2.17209222 3.32219086c-.17934707.27471415-.5380412.36723446-.82841263.2149318l-1.95004348-1.02768715.67753336 5.64943256c.03700812.3088755.29891177.5408879.61063405.5408879h7.32618521c.3102989 0 .5722026-.2320124.6106341-.5408879l.6775333-5.64943256-1.9500435 1.02626376c-.288948.15230266-.6490655.05978235-.8284126-.2149318zm2.31727789 4.93773787c.2419762.2547867.2320125.6576059-.0227742.8995821l-1.4077321 1.3365626c-.2490931.2348592-.5679324.3530006-.88677159.3530006-.31883923 0-.63767845-.1181414-.8867716-.3530006l-1.40773211-1.3365626c-.2547867-.2419762-.26475043-.6447954-.02277423-.8995821.24197619-.2547867.64479539-.2647505.8995821-.0227743l1.40773211 1.3365627 1.42765952-1.3365627c.2547867-.2419762.6576059-.2320124.8995821.0227743z" fill="#fff" fill-rule="nonzero"/></g></svg>