<svg height="14" viewBox="0 0 13 14" width="13" xmlns="http://www.w3.org/2000/svg" xmlns:xlink="http://www.w3.org/1999/xlink"><linearGradient id="ace"><stop offset="0" stop-color="#1764ff"/><stop offset="1" stop-color="#398bf0"/></linearGradient><linearGradient id="bce" x1="114.703313%" x2="1.491444%" xlink:href="#a" y1="124.28283%" y2="26.202867%"/><linearGradient id="cce" x1="88.28125%" x2="12.860637%" xlink:href="#ace" y1="100%" y2="26.202867%"/><g fill="none"><path d="m6.125 1.4765625c-2.56757813 0-4.6484375 2.08085937-4.6484375 4.6484375s2.08085937 4.6484375 4.6484375 4.6484375 4.6484375-2.08085937 4.6484375-4.6484375c0-2.56757812-2.08085937-4.6484375-4.6484375-4.6484375zm1.90039062 5.53847656c-.02597656.02460938-.03691406.06152344-.03144531.09707032l.35410157 2.06582031c.03144531.17910156-.15722657.31445312-.3171875.23105468l-1.85527344-.97480468c-.03144531-.01640625-.06972657-.01640625-.10117188 0l-1.85527343.97480468c-.15996094.08476563-.34863282-.05195312-.3171875-.23105468l.35410156-2.06582031c.00546875-.03554688-.00546875-.07109376-.03144531-.09707032l-1.50117188-1.46289062c-.12988281-.12714844-.05878906-.34726563.12167969-.37324219l2.07402343-.30078125c.03554688-.00546875.06699219-.02734375.08203125-.06015625l.92695313-1.87988281c.08066406-.16269532.31171875-.16269532.39238281 0l.92695313 1.87988281c.01640625.0328125.04648437.0546875.08203125.06015625l2.07402344.30078125c.17910156.02597656.25156249.24609375.12167968.37324219z" fill="url(#bce)"/><path d="m12.25 6.125c0-.46621094-.3759766-.88183594-.4730469-1.31796875-.0998047-.44980469.0601563-.99121094-.1326172-1.39863281-.1955078-.41289063-.7109375-.62207031-.9884765-.97617188-.2789063-.35683593-.3636719-.91601562-.71230471-1.20175781-.34589844-.28300781-.89960938-.24472656-1.30292969-.44296875-.39785156-.19550781-.7109375-.66308594-1.15253906-.765625-.06425781-.01503906-.12988281-.021875-.19550781-.021875-.37460938 0-.77929688.20234375-1.16757813.20234375s-.79296875-.20234375-1.16757812-.20234375c-.065625 0-.13125.00683594-.19550782.02050781-.44023437.10253907-.7546875.57011719-1.15253906.765625-.40332031.19960938-.95703125.16132813-1.30429687.44433594-.34863282.284375-.43476563.84492188-.71230469 1.20175781-.27753906.35410157-.79296875.56328125-.98847657.97617188-.19140624.40605469-.03144531.94746094-.13261718 1.39863281-.09570313.43613281-.47167969.85175781-.47167969 1.31796875s.37597656.88183594.47304688 1.31796875c.09980468.44980469-.06015625.99121094.13261718 1.39863281.13945313.2953125.44433594.48671875.70683594.70136719.10390625.08476563.20234375.17363281.28027344.27480469l.00136719.00136719c.06835937.08613281.09160156.20097657.06289062.30624997l-.77382812 2.8875c-.01914063.0697266.03417968.138086.10527343.138086h.0109375l1.53945313-.1503907c.01367187-.0013671.02871094-.0027343.04238281-.0027343.09160156 0 .18046875.0287109.25429688.0820312l1.25917968.8996094c.01914063.0136719.04101563.0205078.06289063.0205078.04648437 0 .09296875-.0300781.10664062-.0806641l.44433594-1.6597656c.00683594-.0232422.03007813-.0369141.05332031-.0314453.06425782.0150391.12988282.0205078.19550782.0205078.37460937 0 .77929687-.2023437 1.16757812-.2023437s.79296875.2023437 1.16757813.2023437c.065625 0 .13125-.0068359.19550781-.0205078.01640625-.0041016.0328125.0054688.03691406.021875l.44707031 1.6679688c.01367188.0505859.05878907.080664.10664063.080664.021875 0 .04375-.0068359.06289062-.0205078l1.25917969-.8996094c.07519531-.0533203.1640625-.0820312.25429688-.0820312.01367187 0 .02871093 0 .04238281.0027344l1.53945316.1503906h.0109375c.0710937 0 .124414-.0669922.1052734-.138086l-.765625-2.8560546c-.0314453-.1175782-.0068359-.24335942.0683594-.33906255.0396484-.05058594.0833984-.0984375.13125-.14355469.0478515-.04511718.0984375-.08886718.1503906-.13125.2638672-.21464843.5673828-.40605468.7068359-.70136718.1914063-.40605469.0314454-.94746094.1326172-1.39863282.0970703-.43476562.4730469-.85039062.4730469-1.31660156zm-2.0644531 3.0625c-.0751953.0984375-.153125.19550781-.23515628.28847656-.1859375.21191407-.38828125.40878906-.60703125.58652344-.18730468.153125-.38554687.2939453-.59472656.4197266-.13671875.0833984-.27890625.1599609-.42382812.2296875-.17773438.0861328-.36230469.1613281-.55234375.2269531-.10664063.0369141-.21328125.0697266-.32265625.0984375-.07792969.0205078-.15722657.0396484-.23652344.0574219-.35.0751953-.71367188.1162109-1.08828125.1162109-.37871094 0-.74785156-.0410156-1.10332031-.1203125-.07519532-.0164062-.14902344-.0341797-.22285157-.0546875-.109375-.0287109-.21738281-.0615234-.32265624-.0984375-.18867188-.0642578-.37324219-.1408203-.55234376-.2255859-.13808593-.0669922-.27207031-.1394532-.40332031-.2173829-.21601562-.1285156-.42109375-.2734375-.61523437-.4320312-.21601563-.17773438-.41835938-.371875-.60292969-.58242187-.08339844-.09433594-.16269531-.19277344-.23925781-.29257813-.64394531-.85175781-1.02539063-1.91269531-1.02539063-3.0625 0-2.80957031 2.27636719-5.0859375 5.0859375-5.0859375s5.08594119 2.27636719 5.08594119 5.0859375c.0013635 1.14980469-.3800818 2.21074219-1.0240271 3.0625z" fill="url(#cce)"/></g></svg>