<?xml version="1.0" encoding="UTF-8"?>
<svg width="28px" height="24px" viewBox="0 0 28 24" version="1.1" xmlns="http://www.w3.org/2000/svg" xmlns:xlink="http://www.w3.org/1999/xlink">
    <title>切图</title>
    <g id="页面-1" stroke="none" stroke-width="1" fill="none" fill-rule="evenodd">
        <g id="切图" transform="translate(-160.000000, -321.000000)" fill="#FFFFFF" fill-rule="nonzero">
            <g id="编组" transform="translate(160.000000, 321.000000)">
                <path d="M26.6000014,8 C27.3732206,8 28,8.59696 28,9.33333333 L28,22.6666667 C28,23.4030667 27.3732206,24 26.6000014,24 L1.3999986,24 C0.626807373,24 0,23.4030667 0,22.6666667 L0,9.60000002 C-1.08216602e-16,8.71634441 0.716344411,8 1.60000002,8 L26.6000014,8 Z M22.4000056,14.6666667 L18.2000098,14.6666667 L18.2000098,17.3333333 L22.4000056,17.3333333 L22.4000056,14.6666667 Z" id="形状结合"></path>
                <path d="M1.3999986,0 L20.8000056,0 C21.6836612,-1.73201259e-15 22.4000056,0.716344411 22.4000056,1.60000002 L22.4000056,3.73333331 C22.4000056,4.61698892 21.6836612,5.33333333 20.8000056,5.33333333 L0,5.33333333 L0,5.33333333 L0,1.33333333 C0,0.59696 0.626807373,0 1.3999986,0 Z" id="路径" fill-opacity="0.5"></path>
            </g>
        </g>
    </g>
</svg>