<?xml version="1.0" encoding="UTF-8"?>
<svg width="32px" height="28px" viewBox="0 0 32 28" version="1.1" xmlns="http://www.w3.org/2000/svg" xmlns:xlink="http://www.w3.org/1999/xlink">
    <title>切图</title>
    <g id="页面-1" stroke="none" stroke-width="1" fill="none" fill-rule="evenodd">
        <g id="切图" transform="translate(-73.000000, -319.000000)" fill="#FFFFFF" fill-rule="nonzero">
            <g id="编组" transform="translate(73.000000, 319.000000)">
                <path d="M1.60000002,15.5555556 L7.99999998,15.5555556 C8.88365559,15.5555556 9.6,16.2719 9.6,17.1555556 L9.6,26.4 C9.6,27.2836556 8.88365559,28 7.99999998,28 L1.60000002,28 C0.716344411,28 6.71015843e-16,27.2836556 0,26.4 L0,17.1555556 C-3.30261207e-16,16.2719 0.716344411,15.5555556 1.60000002,15.5555556 Z" id="路径" fillOpacity="0.5"></path>
                <path d="M12.8,0 L19.2,0 C20.0836556,-1.62324903e-16 20.8,0.716344411 20.8,1.60000002 L20.8,26.4 C20.8,27.2836556 20.0836556,28 19.2,28 L12.8,28 C11.9163444,28 11.2,27.2836556 11.2,26.4 L11.2,1.60000002 C11.2,0.716344411 11.9163444,1.62324903e-16 12.8,0 Z" id="路径"></path>
                <path d="M24,7.77777778 L30.4,7.77777778 C31.2836556,7.77777778 32,8.49412219 32,9.3777778 L32,26.4 C32,27.2836556 31.2836556,28 30.4,28 L24,28 C23.1163444,28 22.4,27.2836556 22.4,26.4 L22.4,9.3777778 C22.4,8.49412219 23.1163444,7.77777778 24,7.77777778 Z" id="路径"></path>
            </g>
        </g>
    </g>
</svg>