<?xml version="1.0" encoding="UTF-8"?>
<svg width="28px" height="30px" viewBox="0 0 28 30" version="1.1" xmlns="http://www.w3.org/2000/svg" xmlns:xlink="http://www.w3.org/1999/xlink">
    <title>切图</title>
    <g id="页面-1" stroke="none" stroke-width="1" fill="none" fill-rule="evenodd">
        <g id="切图" transform="translate(-199.000000, -318.000000)" fill="#FFFFFF" fill-rule="nonzero">
            <g id="编组" transform="translate(199.000000, 318.000000)">
                <path d="M14.0000076,6 C20.7290627,6 26.1839791,11.37258 26.1839791,18 L26.1839791,27 L27.7069755,27 L27.7069755,30 L0.293009283,30 L0.293009283,27 L1.81600571,27 L1.81600571,18 C1.81600571,11.37258 7.27095249,6 14.0000076,6 Z M13.5,10 C9.35786438,10 6,13.3578644 6,17.5 L6,17.5 L6,17.7045238 L6.01369323,17.9080649 C6.11301808,18.640216 6.74060847,19.2045238 7.5,19.2045238 C8.32842712,19.2045238 9,18.5329509 9,17.7045238 L9,17.7045238 L9,17.5 L9.01038163,17.1919024 C9.16871017,14.8503232 11.118272,13 13.5,13 C14.3284271,13 15,12.3284271 15,11.5 C15,10.6715729 14.3284271,10 13.5,10 Z" id="形状结合"></path>
                <path d="M14.0000076,0 C14.8411353,-1.54512652e-16 15.523004,0.681868728 15.523004,1.52299643 L15.523004,2.97700357 C15.523004,3.81813127 14.8411353,4.5 14.0000076,4.5 C13.1588799,4.5 12.4770112,3.81813127 12.4770112,2.97700357 L12.4770112,1.52299643 C12.4770112,0.681868728 13.1588799,1.54512652e-16 14.0000076,0 Z" id="路径" fill-opacity="0.5"></path>
                <path d="M26.9230892,5.27208 C27.5088769,5.8490308 27.5160407,6.79161661 26.9390899,7.37740434 C26.9337961,7.38277918 26.9284616,7.38811371 26.9230867,7.39340746 L25.8462196,8.45402447 C25.2487994,9.04242951 24.2897204,9.04244533 23.6922807,8.45406 C23.1064861,7.87714319 23.0992892,6.93457934 23.676206,6.34878472 C23.68152,6.34338898 23.6868751,6.33803386 23.6922707,6.33271985 L24.7692402,5.27205208 C25.3666508,4.68368423 26.3256939,4.68369666 26.9230892,5.27208 Z" id="路径" fill-opacity="0.5"></path>
                <path d="M1.07692601,5.27208 C1.67432779,4.68369866 2.63337623,4.68369866 3.23077802,5.27208 L4.30768879,6.33273 C4.8934779,6.909674 4.90064827,7.85225542 4.32370427,8.43804453 C4.31840646,8.44342355 4.31306782,8.4487622 4.30768879,8.45406 C3.710287,9.04244134 2.75123857,9.04244134 2.15383678,8.45406 L1.07692601,7.39341 C0.491136902,6.816466 0.48396653,5.87388458 1.06091053,5.28809547 C1.06620834,5.28271645 1.07154698,5.2773778 1.07692601,5.27208 Z" id="路径" fill-opacity="0.5"></path>
            </g>
        </g>
    </g>
</svg>