<svg height="16" viewBox="0 0 16 16" width="16" xmlns="http://www.w3.org/2000/svg"><g fill="none" fill-rule="evenodd"><path d="m0 0h16v16h-16z"/><g fill-rule="nonzero" transform="translate(1 2)"><path d="m.80000001 4h12.50000069c.3866096 0 .6999993.29848.6999993.66666667v6.66666663c0 .3682-.3133897.6666667-.6999993.6666667h-12.6000014c-.38659561 0-.6999993-.2984667-.6999993-.6666667v-6.53333329c-0-.4418278.35817221-.80000001.80000001-.80000001z" fill="#a56b3b"/><path d="m.6999993 0h9.7000035c.4418278-0 .8.35817221.8.80000001v1.06666664c0 .44182781-.3581722.80000002-.8.80000002h-10.4000028v-2c0-.36818667.31340369-.66666667.6999993-.66666667z" fill="#ddb28e"/><path d="m9.1000049 7.33333333v1.33333334h2.0999979v-1.33333334z" fill="#d9be9f"/></g></g></svg>