<?xml version="1.0" encoding="UTF-8"?>
<svg width="54px" height="52px" viewBox="0 0 54 52" version="1.1" xmlns="http://www.w3.org/2000/svg" xmlns:xlink="http://www.w3.org/1999/xlink">
    <title>星形</title>
    <defs>
        <linearGradient x1="63.6147327%" y1="13.2927187%" x2="39.3941709%" y2="89.1632397%" id="linearGradient-1">
            <stop stop-color="#FF842D" offset="0%"></stop>
            <stop stop-color="#FF2D2D" offset="100%"></stop>
        </linearGradient>
    </defs>
    <g id="会员" stroke="none" stroke-width="1" fill="none" fill-rule="evenodd">
        <g id="h5会员成功提醒" transform="translate(-833.000000, -710.000000)" fill="url(#linearGradient-1)" stroke="#FFFFFF">
            <g id="编组-7" transform="translate(860.000000, 736.000000) rotate(-360.000000) translate(-860.000000, -736.000000) translate(832.000000, 708.000000)">
                <path d="M32.4910848,3.35326715 C33.6633041,2.94390558 34.9000741,2.95063715 36.0207215,3.31475755 C37.1413688,3.67887794 38.1458935,4.40038716 38.8536222,5.42058087 L38.8536222,5.42058087 L39.8731695,6.89026247 C40.9686957,8.46946788 42.5670925,9.63077108 44.4075423,10.1846771 L44.4075423,10.1846771 L46.12035,10.7001677 C47.3093121,11.0580004 48.3059233,11.7904016 48.9985214,12.7436811 C49.6911196,13.6969607 50.0797047,14.8711187 50.0526144,16.1124653 L50.0526144,16.1124653 L50.0135883,17.9007375 C49.971654,19.8222757 50.5821872,21.7013038 51.7455646,23.2312124 L51.7455646,23.2312124 L52.8282574,24.6550161 C53.5798191,25.6433633 53.9555999,26.8216816 53.9555999,28 C53.9555999,29.1783184 53.5798191,30.3566367 52.8282574,31.3449839 L52.8282574,31.3449839 L51.7455646,32.7687876 C50.5821872,34.2986962 49.971654,36.1777243 50.0135883,38.0992625 L50.0135883,38.0992625 L50.0526144,39.8875347 C50.0797047,41.1288813 49.6911196,42.3030393 48.9985214,43.2563189 C48.3059233,44.2095984 47.3093121,44.9419996 46.12035,45.2998323 L46.12035,45.2998323 L44.4075423,45.8153229 C42.5670925,46.3692289 40.9686957,47.5305321 39.8731695,49.1097375 L39.8731695,49.1097375 L38.8536222,50.5794191 C38.1458935,51.5996128 37.1413688,52.3211221 36.0207215,52.6852425 C34.9000741,53.0493629 33.6633041,53.0560944 32.4910848,52.6467328 L32.4910848,52.6467328 L30.8023965,52.0570104 C28.9878635,51.4233405 27.0121365,51.4233405 25.1976035,52.0570104 L25.1976035,52.0570104 L23.5089152,52.6467328 C22.3366959,53.0560944 21.0999259,53.0493629 19.9792785,52.6852425 C18.8586312,52.3211221 17.8541065,51.5996128 17.1463778,50.5794191 L17.1463778,50.5794191 L16.1268305,49.1097375 C15.0313043,47.5305321 13.4329075,46.3692289 11.5924577,45.8153229 L11.5924577,45.8153229 L9.87965001,45.2998323 C8.69068795,44.9419996 7.6940767,44.2095984 7.00147855,43.2563189 C6.3088804,42.3030393 5.92029534,41.1288813 5.94738564,39.8875347 L5.94738564,39.8875347 L5.98641167,38.0992625 C6.02834601,36.1777243 5.41781278,34.2986962 4.2544354,32.7687876 L4.2544354,32.7687876 L3.1717426,31.3449839 C2.42018091,30.3566367 2.04440006,29.1783184 2.04440006,28 C2.04440006,26.8216816 2.42018091,25.6433633 3.1717426,24.6550161 L3.1717426,24.6550161 L4.2544354,23.2312124 C5.41781278,21.7013038 6.02834601,19.8222757 5.98641167,17.9007375 L5.98641167,17.9007375 L5.94738564,16.1124653 C5.92029534,14.8711187 6.3088804,13.6969607 7.00147855,12.7436811 C7.6940767,11.7904016 8.69068795,11.0580004 9.87965001,10.7001677 L9.87965001,10.7001677 L11.5924577,10.1846771 C13.4329075,9.63077108 15.0313043,8.46946788 16.1268305,6.89026247 L16.1268305,6.89026247 L17.1463778,5.42058087 C17.8541065,4.40038716 18.8586312,3.67887794 19.9792785,3.31475755 C21.0999259,2.95063715 22.3366959,2.94390558 23.5089152,3.35326715 L23.5089152,3.35326715 L25.1976035,3.94298964 C27.0121365,4.57665951 28.9878635,4.57665951 30.8023965,3.94298964 L30.8023965,3.94298964 Z" id="星形"></path>
            </g>
        </g>
    </g>
</svg>