<svg height="14" viewBox="0 0 14 14" width="14" xmlns="http://www.w3.org/2000/svg"><g fill="none"><path d="m5.610783.10194056c-.97693895-.31625259-2.03896518.12364736-2.50615412 1.03808999l-.56165835 1.09934559c-.0667343.1306247-.17296969.23686009-.30359439.30359439l-1.09934559.56165835c-.91444263.46718894-1.35434258 1.52921517-1.03808999 2.50615412l.38020571 1.17450708c.04517496.13954677.04517496.28982791 0 .42937469l-.38020571 1.17450707c-.31625259.97696683.12364736 2.03897216 1.03808999 2.50619596l1.09934559.5616026c.1306247.0667761.23686009.1730045.30359439.3036292l.56165835 1.0993665c.46718894.9144426 1.52921517 1.3543426 2.50615412 1.038097l1.17450708-.3802336c.13954677-.045168.28982791-.045168.42937469 0l1.17450707.3802336c.97696683.3162456 2.03897216-.1236544 2.50619596-1.038097l.5616026-1.0993665c.0667761-.1306247.1730045-.2368531.3036292-.3036292l1.0993665-.5616026c.9144426-.4672238 1.3543426-1.52922913 1.038097-2.50619596l-.3802336-1.17450707c-.045168-.13954678-.045168-.28982792 0-.42937469l.3802336-1.17450708c.3162456-.97693895-.1236544-2.03896518-1.038097-2.50615412l-1.0993665-.56165835c-.1306247-.0667343-.2368531-.17296969-.3036292-.30359439l-.5616026-1.09934559c-.4672238-.91444263-1.52922913-1.35434258-2.50619596-1.03808999l-1.17450707.38020571c-.13954678.04516799-.28982792.04517496-.42937469 0z" fill="#a56b3b"/><path d="m3.84022579 6.33789698c.27219903-.27221442.71353333-.27222691.98574776-.00002788l.00002178.00002178 1.33719903 1.33724159c.078102.07810773.20473499.07810974.2828411.00000612.00000054-.00000054.00000108-.00000108 0-.00000325l3.30876703-3.30873779c.27220941-.27220703.71354611-.27220528.98575341.00000392.272207.27220894.2722055.71354527-.0000035.98575229-.0000001.00000012-.0000002.00000023-.0000003.00000035l-3.72882885 3.72879718c-.3905293.39051499-1.02369003.39051476-1.41421906-.0000005l-1.75726271-1.75725029c-.2722217-.27221977-.27222872-.71357509-.00001569-.98580352z" fill="#fff"/></g></svg>