<svg height="16" viewBox="0 0 16 16" width="16" xmlns="http://www.w3.org/2000/svg"><g fill="none" fill-rule="evenodd"><path d="m0 0h16v16h-16z"/><g fill-rule="nonzero" transform="translate(1 2)"><path d="m.7 0h12.6c.38661 0 .7.29848.7.66666667v10.66666663c0 .3682-.31339.6666667-.7.6666667h-12.6c-.386596 0-.7-.2984667-.7-.6666667v-10.66666663c0-.36818667.313404-.66666667.7-.66666667z" fill="#a56b3b"/><path d="m6.78849825 5.58327706-3.70603784-2.9967286c-.29641469-.23968303-.72879544-.20442301-.98246041.08011821-.23845323.26747789-.21492409.67761611.05255381.91606934.00777003.00692688.01570563.01366578.02379991.02021083l4.24000952 3.42848044c.36946323.29874872.89813039.29627448 1.26478111-.00591937l4.15131115-3.4215144c.2766082-.22798073.3160286-.63703086.0880478-.91363906-.0066428-.00805975-.0134793-.01595798-.0205033-.02368778-.25649-.28226139-.6893956-.31345783-.9837064-.07088876l-3.62188328 2.98513327c-.14666067.12087679-.35812729.12186571-.50591207.00236588z" fill="#ddb28e"/></g></g></svg>