<svg height="85" viewBox="0 0 81 85" width="81" xmlns="http://www.w3.org/2000/svg" xmlns:xlink="http://www.w3.org/1999/xlink"><linearGradient id="a" x1="61.001425%" x2="43.98541%" y1="88.215218%" y2="8.36737%"><stop offset="0" stop-color="#1764ff" stop-opacity="0"/><stop offset="1" stop-color="#1c6afd"/></linearGradient><path d="m49.2312407 75.0075567c.4652333.4798248.7432674 1.1188724.8340984 1.9171466-.859657-.229329-1.5667001-.2654898-2.1211289-.1084821-.8316434.2355111-1.1718026.5562093-2.1885638 1.534117-.6778409.6519385-1.1644827 1.3102561-1.4599258 1.9749529l-8.1749368 16.4875322 3.0208613 13.8215527c.434083 4.006395.216893 7.453979-.6515702 10.34275-1.3026946 4.333158-2.7470366 5.953586-5.2416845 9.02786-1.6630986 2.049517-3.8102632 3.839477-6.4414935 5.369881 1.2347066-.873037 2.1906254-2.62134 2.8677563-5.244911.2648633-1.026224.9327166-3.518609.1346197-6.69201-.8281744-3.292995-3.6695877-10.702705-8.5242402-22.22913l-9.4805578.58722c17.0243699-16.3738172 25.71669-24.7339778 26.0769609-25.0804816.5404061-.5197556 1.3895462-.8180602 2.1480583-1.044191.5056747-.1507538 1.2000972-.2231768 2.0832674-.217269 1.6651773-.8721368 3.0077875-1.3401845 4.0278301-1.404143 1.5300643-.0959377 2.3927892.2378781 3.0906491.9576053zm43.7959727-48.2434501c5.4955702 6.0645614 8.4727866 17.7709879 8.4727866 28.7358934 0 27.8976737-22.6168569 50.5-50.5 50.5-1.1911145 0-2.4146816-.089456-3.7751636-.253167l-1.5493698-.208234-1.8716296-.286203 2.4341211-15.8732615 2.334342.3503597c.1949786.0263812.3783627.0498681.5583228.0715233l1.3478939.123701c.1905041.0101779.3641998.0152108.5214832.0152108 19.0580425 0 34.4945355-15.4265756 34.4945355-34.4399293 0-6.9157874-1.8252019-14.4992996-3.9148317-17.4365679l-.3945234-.4949923zm13.4727866-26.7641066-19.702 19.891.714513.7221125-11.5520852 11.1158918c-.1454073-.1521461-.2920501-.3028402-.4399078-.4520709l-48.50252 48.9660666.3680359.362006-10.9306032 11.73163c-.2446371-.2294914-.48678-.4611738-.7264062-.6950073l-6.29843925 6.3583713-4.90582381-22.7142612c-2.62071398-6.1536929-4.02476344-12.859496-4.02476344-19.7857388 0-27.8976738 22.6168567-50.5 50.5-50.5 11.7663827 0 22.9015223 4.05193378 31.7759587 11.2468826zm-55.5 21.0600707c-19.0580426 0-34.4945355 15.4265754-34.4945355 34.4399293 0 1.9644919.1651413 3.9018786.4865262 5.7964275l51.6739838-35.3867855c-5.2534685-3.1338518-11.3179311-4.8495713-17.6659745-4.8495713z" fill="url(#a)" opacity=".1" transform="translate(0 -36)"/></svg>