<?xml version="1.0" encoding="UTF-8"?>
<svg width="6px" height="13px" viewBox="0 0 6 13" version="1.1" xmlns="http://www.w3.org/2000/svg" xmlns:xlink="http://www.w3.org/1999/xlink">
    <title>切图</title>
    <g id="会员" stroke="none" stroke-width="1" fill="none" fill-rule="evenodd">
        <g id="切图" transform="translate(-704.000000, -64.000000)" fill="#6D3F1A">
            <path d="M708.262589,64.097931 C708.922206,64.7367535 708.953529,65.8440331 708.331294,66.5254467 L708.230161,66.427519 C707.570559,65.7886932 707.539232,64.6814178 708.161494,64 L708.262589,64.097931 Z M707.22515,67.9964387 C707.459098,66.8245774 706.739575,65.6793474 705.64772,65.4857179 L705.480339,65.4560349 C705.24639,66.6279003 705.965914,67.7731303 707.057772,67.9667556 L707.22515,67.9964387 Z M704.192636,68.2581228 C705.449255,68.0857935 706.582783,69.0892732 706.677702,70.458047 L706.485064,70.484476 C705.228446,70.6568012 704.094918,69.6533256 704,68.2845105 L704.192636,68.2581228 Z M708.100638,73.9320961 C707.864761,72.2053334 706.342341,71.0448118 704.762972,71.3878931 L704.520857,71.440462 C704.756722,73.167266 706.279146,74.3277463 707.858512,73.9847063 L708.100638,73.9320961 Z M710,76.5374161 C709.211127,74.9449458 707.362766,74.3757727 705.91902,75.2807178 L705.868194,75.3125978 C706.657075,76.9050681 708.505439,77.4742412 709.949166,76.5692961 L710,76.5374161 Z" id="形状"></path>
        </g>
    </g>
</svg>