<svg height="64" viewBox="0 0 64 64" width="64" xmlns="http://www.w3.org/2000/svg" xmlns:xlink="http://www.w3.org/1999/xlink"><linearGradient id="a" x1="50%" x2="50%" y1="0%" y2="100%"><stop offset="0" stop-color="#6d3f1a"/><stop offset="1" stop-color="#6d3f1a" stop-opacity=".2"/></linearGradient><linearGradient id="b" x1="44.848757%" x2="50%" y1="11.892606%" y2="100%"><stop offset="0" stop-color="#fed7a8"/><stop offset="1" stop-color="#f2c37e"/></linearGradient><linearGradient id="c" x1="32.30592%" x2="61.378277%" y1="9.726278%" y2="91.307486%"><stop offset="0" stop-color="#fff2e2"/><stop offset="1" stop-color="#deb17f"/></linearGradient><g fill="none" fill-rule="evenodd"><path d="m-536-38h1832v1794h-1832z" fill="#fff"/><circle cx="32" cy="32" fill="url(#a)" r="32"/><path d="m16 16h30v30h-30z"/><g fill-rule="nonzero" transform="translate(16 17.875)"><path d="m1.50000002 11.25h5.99999996c.82842713 0 1.50000002.6715729 1.50000002 1.5v12c0 .8284271-.67157289 1.5-1.50000002 1.5h-5.99999996c-.82842713 0-1.50000002-.6715729-1.50000002-1.5v-12c0-.8284271.67157289-1.5 1.50000002-1.5z" fill="#c49b6d"/><path d="m12 0h6c.8284271 0 1.5.67157289 1.5 1.50000002v23.24999998c0 .8284271-.6715729 1.5-1.5 1.5h-6c-.8284271 0-1.5-.6715729-1.5-1.5v-23.24999998c0-.82842713.6715729-1.50000002 1.5-1.50000002zm10.5 7.29166667h6c.8284271 0 1.5.67157288 1.5 1.50000002v15.95833331c0 .8284271-.6715729 1.5-1.5 1.5h-6c-.8284271 0-1.5-.6715729-1.5-1.5v-15.95833331c0-.82842714.6715729-1.50000002 1.5-1.50000002z" fill="url(#b)" stroke="url(#c)" stroke-width=".875"/></g></g></svg>