<svg height="64" viewBox="0 0 64 64" width="64" xmlns="http://www.w3.org/2000/svg" xmlns:xlink="http://www.w3.org/1999/xlink"><linearGradient id="a" x1="50%" x2="50%" y1="0%" y2="100%"><stop offset="0" stop-color="#6d3f1a"/><stop offset="1" stop-color="#6d3f1a" stop-opacity=".2"/></linearGradient><linearGradient id="b" x1="40.665277%" x2="50%" y1="11.892606%" y2="100%"><stop offset="0" stop-color="#fed7a8"/><stop offset="1" stop-color="#f2c37e"/></linearGradient><linearGradient id="c" x1="17.936023%" x2="70.618919%" y1="9.726278%" y2="91.307486%"><stop offset="0" stop-color="#fff2e2"/><stop offset="1" stop-color="#deb17f"/></linearGradient><g fill="none" fill-rule="evenodd"><path d="m-368-38h1832v1794h-1832z" fill="#fff"/><circle cx="32" cy="32" fill="url(#a)" r="32"/><g fill-rule="nonzero" transform="translate(15 15)"><path d="m15.3443772.06640625v17.58920125c0 .5522847.4477153 1 1 1h17.5892165c-.851662 8.5784195-8.0893461 15.2779862-16.8916642 15.2779862-9.37532684 0-16.97552325-7.6001191-16.97552325-16.9755403 0-8.80234385 6.69969583-16.03995034 15.27797095-16.89164715z" fill="url(#b)" stroke="url(#c)"/><path d="m18.9921875.06640625c7.8865305.78302919 14.1584957 7.05489154 14.9414062 14.94140625h-14.5414062c-.2209139 0-.4-.1790861-.4-.4z" fill="#f4c685" opacity=".3"/></g></g></svg>