<svg height="64" viewBox="0 0 64 64" width="64" xmlns="http://www.w3.org/2000/svg" xmlns:xlink="http://www.w3.org/1999/xlink"><linearGradient id="a" x1="50%" x2="50%" y1="0%" y2="100%"><stop offset="0" stop-color="#6d3f1a"/><stop offset="1" stop-color="#6d3f1a" stop-opacity=".2"/></linearGradient><linearGradient id="b" x1="40.665277%" x2="50%" y1="34.429988%" y2="70.429123%"><stop offset="0" stop-color="#fed7a8"/><stop offset="1" stop-color="#f2c37e"/></linearGradient><linearGradient id="c" x1="17.936023%" x2="70.618919%" y1="33.544864%" y2="66.877514%"><stop offset="0" stop-color="#fff2e2"/><stop offset="1" stop-color="#deb17f"/></linearGradient><g fill="none" fill-rule="evenodd"><path d="m-455-38h1832v1794h-1832z" fill="#fff"/><circle cx="32" cy="32" fill="url(#a)" r="32"/><g fill-rule="nonzero"><path d="m18.5454545 26.5454545h26.909091c1.4058157 0 2.5454545 1.1396388 2.5454545 2.5454545v15.3636365c0 1.4058157-1.1396388 2.5454545-2.5454545 2.5454545h-26.909091c-1.4058157 0-2.5454545-1.1396388-2.5454545-2.5454545v-15.3636365c0-1.4058157 1.1396388-2.5454545 2.5454545-2.5454545z" fill="url(#b)" stroke="url(#c)" stroke-width=".875"/><path d="m17.657364 17h22.8604931c1.1045695 0 2 .8954305 2 2v2.4166667c0 1.1045695-.8954305 2-2 2h-24.5178571v-4.8125c0-.8859492.742035-1.6041667 1.657364-1.6041667z" fill="#be9568"/><path d="m39.3918067 32.1401515c0 .8054153.6529181 1.4583333 1.4583334 1.4583333h1.797619c.8054153 0 1.4583333-.652918 1.4583333-1.4583333 0-.8054152-.652918-1.4583333-1.4583333-1.4583333h-1.797619c-.8054153 0-1.4583334.6529181-1.4583334 1.4583333z" fill="#fff2dc"/></g></g></svg>