<svg height="16" viewBox="0 0 16 16" width="16" xmlns="http://www.w3.org/2000/svg"><g fill="none" fill-rule="evenodd"><path d="m0 0h16v16h-16z"/><g fill-rule="nonzero" transform="translate(3 1)"><path d="m.71428571 0h8.57142858c.3945 0 .71428571.313404.71428571.7v12.6c0 .38661-.31978571.7-.71428571.7h-8.57142858c-.39448571 0-.71428571-.31339-.71428571-.7v-12.6c0-.386596.3198-.7.71428571-.7z" fill="#a56b3b"/><g fill="#ddb28e"><path d="m1.93877551 2h6.12244898c.28178571 0 .51020408.156702.51020408.35v6.3c0 .193305-.22841837.35-.51020408.35h-6.12244898c-.28177551 0-.51020408-.156695-.51020408-.35v-6.3c0-.193298.22842857-.35.51020408-.35z"/><path d="m5 10.5c-.3945 0-.71428571.31339-.71428571.7s.31978571.7.71428571.7.71428571-.31339.71428571-.7-.31978571-.7-.71428571-.7z"/></g></g></g></svg>