<svg height="16" viewBox="0 0 16 16" width="16" xmlns="http://www.w3.org/2000/svg"><g fill="none" fill-rule="evenodd"><path d="m0 0h16v16h-16z"/><g fill-rule="nonzero" transform="translate(0 1)"><path d="m.80000001 7.77777778h3.19999998c.4418278 0 .80000001.3581722.80000001.80000001v4.62222221c0 .4418278-.35817221.8-.80000001.8h-3.19999998c-.4418278 0-.80000001-.3581722-.80000001-.8v-4.62222221c-0-.44182781.35817221-.80000001.80000001-.80000001z" fill="#ddb28e"/><g fill="#a56b3b"><path d="m6.40000001 0h3.19999998c.44182781-0 .80000001.35817221.80000001.80000001v12.39999999c0 .4418278-.3581722.8-.80000001.8h-3.19999998c-.4418278 0-.80000001-.3581722-.80000001-.8v-12.39999999c0-.4418278.35817221-.80000001.80000001-.80000001z"/><path d="m12 3.88888889h3.2c.4418278 0 .8.3581722.8.80000001v8.5111111c0 .4418278-.3581722.8-.8.8h-3.2c-.4418278 0-.8-.3581722-.8-.8v-8.5111111c0-.44182781.3581722-.80000001.8-.80000001z"/></g></g></g></svg>