<?xml version="1.0" encoding="UTF-8"?>
<svg width="16px" height="16px" viewBox="0 0 16 16" version="1.1" xmlns="http://www.w3.org/2000/svg" xmlns:xlink="http://www.w3.org/1999/xlink">
    <title>切图</title>
    <g id="会员" stroke="none" stroke-width="1" fill="none" fill-rule="evenodd">
        <g id="切图" transform="translate(-626.000000, -62.000000)">
            <g id="算力icon" transform="translate(626.000000, 62.000000)">
                <rect id="矩形" x="0" y="0" width="16" height="16"></rect>
                <g id="编组" transform="translate(0.000000, 1.000000)" fill-rule="nonzero">
                    <path d="M0.800000012,7.77777778 L3.99999999,7.77777778 C4.44182779,7.77777778 4.8,8.13594998 4.8,8.57777779 L4.8,13.2 C4.8,13.6418278 4.44182779,14 3.99999999,14 L0.800000012,14 C0.358172205,14 3.35507921e-16,13.6418278 0,13.2 L0,8.57777779 C-1.65130603e-16,8.13594998 0.358172205,7.77777778 0.800000012,7.77777778 Z" id="路径" fill="#DDB28E"></path>
                    <path d="M6.40000001,0 L9.59999999,0 C10.0418278,-8.11624513e-17 10.4,0.358172205 10.4,0.800000012 L10.4,13.2 C10.4,13.6418278 10.0418278,14 9.59999999,14 L6.40000001,14 C5.95817221,14 5.6,13.6418278 5.6,13.2 L5.6,0.800000012 C5.6,0.358172205 5.95817221,8.11624513e-17 6.40000001,0 Z" id="路径" fill="#A56B3B"></path>
                    <path d="M12,3.88888889 L15.2,3.88888889 C15.6418278,3.88888889 16,4.24706109 16,4.6888889 L16,13.2 C16,13.6418278 15.6418278,14 15.2,14 L12,14 C11.5581722,14 11.2,13.6418278 11.2,13.2 L11.2,4.6888889 C11.2,4.24706109 11.5581722,3.88888889 12,3.88888889 Z" id="路径" fill="#A56B3B"></path>
                </g>
            </g>
        </g>
    </g>
</svg>