<svg height="13" viewBox="0 0 6 13" width="6" xmlns="http://www.w3.org/2000/svg"><path d="m722.262589 64.097931c.659617.6388225.69094 1.7461021.068705 2.4275157l-.101133-.0979277c-.659602-.6388258-.690929-1.7461012-.068667-2.427519zm-1.037439 3.8985077c.233948-1.1718613-.485575-2.3170913-1.57743-2.5107208l-.167381-.029683c-.233949 1.1718654.485575 2.3170954 1.577433 2.5107207zm-3.032514.2616841c1.256619-.1723293 2.390147.8311504 2.485066 2.1999242l-.192638.026429c-1.256618.1723252-2.390146-.8311504-2.485064-2.1999655zm3.908002 5.6739733c-.235877-1.7267627-1.758297-2.8872843-3.337666-2.544203l-.242115.0525689c.235865 1.726804 1.758289 2.8872843 3.337655 2.5442443zm1.899362 2.60532c-.788873-1.5924703-2.637234-2.1616434-4.08098-1.2566983l-.050826.03188c.788881 1.5924703 2.637245 2.1616434 4.080972 1.2566983z" fill="#6d3f1a" fill-rule="evenodd" transform="matrix(-1 0 0 1 724 -64)"/></svg>