<?xml version="1.0" encoding="UTF-8"?>
<svg width="16px" height="16px" viewBox="0 0 16 16" version="1.1" xmlns="http://www.w3.org/2000/svg" xmlns:xlink="http://www.w3.org/1999/xlink">
    <title>切图</title>
    <g id="会员" stroke="none" stroke-width="1" fill="none" fill-rule="evenodd">
        <g id="切图" transform="translate(-673.000000, -62.000000)">
            <g id="扇区监控" transform="translate(673.000000, 62.000000)">
                <rect id="矩形" x="0" y="0" width="16" height="16"></rect>
                <g id="编组" transform="translate(1.000000, 1.000000)" fill-rule="nonzero">
                    <path d="M6.31559953,0 L6.31559953,6.68439414 C6.31559953,7.23667889 6.76331478,7.68439414 7.31559953,7.68439414 L14,7.68439414 L14,7.68439414 C13.6479404,11.2305367 10.6560304,14 7.01733281,14 C3.14176516,14 0,10.8582668 0,6.98266015 C0,3.34395191 2.76951671,0.352073975 6.31559953,0 Z" id="形状" fill="#A56B3B"></path>
                    <path d="M7.71906609,0 C11.0343348,0.32916236 13.6708871,2.96566817 14,6.28092617 L8.1190661,6.28092617 C7.8981522,6.28092617 7.71906609,6.10184007 7.71906609,5.88092616 L7.71906609,0 L7.71906609,0 Z" id="路径" fill="#DDB28E"></path>
                </g>
            </g>
        </g>
    </g>
</svg>