<svg height="12" viewBox="0 0 14 12" width="14" xmlns="http://www.w3.org/2000/svg"><path d="m1119.98789 100 4.99502 9.016-1.67779 2.611257c-.061.094895-.137.177962-.22451.245805l-.09123.062642c-.42569.257353-.96245.135546-1.24991-.26565l-.06174-.097497-5.60696-10.070734c-.08488-.152452-.12958-.325572-.12958-.501823 0-.512836.37047-.935507.84774-.993272l.11192-.006728zm8.99354 0c.19018 0 .37607.058881.53407.169168.4089.285405.53972.841366.32017 1.286718l-.05692.100637-2.40245 3.735477-2.93176-5.292z" fill="#a56b3b" fill-rule="evenodd" transform="translate(-1116 -100)"/></svg>