<?xml version="1.0" encoding="UTF-8"?>
<svg width="22px" height="20px" viewBox="0 0 22 20" version="1.1" xmlns="http://www.w3.org/2000/svg" xmlns:xlink="http://www.w3.org/1999/xlink">
    <title>编组 25</title>
    <g id="会员" stroke="none" stroke-width="1" fill="none" fill-rule="evenodd">
        <g id="编组-25" transform="translate(1.000000, 0.000000)">
            <rect id="矩形" x="0" y="0" width="20" height="20"></rect>
            <g id="编组备份" transform="translate(0.000000, 3.000000)" fill="#A56B3B">
                <path d="M15.8778833,0 C16.1696844,-1.77635684e-15 16.4448052,0.136036012 16.621953,0.367912152 L19.864301,4.61195663 C20.1629878,5.00292028 20.1081563,5.55835934 19.7387898,5.88337448 L10.6265038,13.9015121 C10.2728423,14.2127081 9.74304821,14.2127081 9.38938671,13.9015121 L0.263492844,5.87140062 C-0.100227897,5.55135328 -0.159746749,5.00670492 0.126265714,4.61565511 L3.22158738,0.383584496 C3.39791712,0.142498105 3.67868453,1.77635684e-15 3.97737304,-1.77635684e-15 L15.8778833,0 Z M14.4835442,5.54340404 C14.10278,5.28059246 13.5617583,5.30894432 13.21551,5.62897659 L13.21551,5.62897659 L9.99885683,8.60380255 L6.8025471,5.63098548 L6.69348112,5.54340706 C6.31271852,5.2805935 5.77169662,5.30894254 5.42544643,5.62897302 C5.04457121,5.98100654 5.04359945,6.55266666 5.42327594,6.90581164 L5.42327594,6.90581164 L8.84774559,10.0909819 L8.97933669,10.2008692 C9.61581479,10.6771439 10.5504545,10.6419381 11.1429212,10.0943198 L11.1429212,10.0943198 L14.5904479,6.90782053 L14.6849027,6.80669479 C14.9683512,6.45365274 14.9377731,5.95202099 14.5926107,5.6309819 L14.5926107,5.6309819 Z" id="形状结合"></path>
            </g>
        </g>
    </g>
</svg>