<?xml version="1.0" encoding="UTF-8"?>
<svg width="16px" height="12px" viewBox="0 0 16 12" version="1.1" xmlns="http://www.w3.org/2000/svg" xmlns:xlink="http://www.w3.org/1999/xlink">
    <title>形状结合</title>
    <g id="会员" stroke="none" stroke-width="1" fill="none" fill-rule="evenodd">
        <g id="编组备份-2" transform="translate(0.303948, 0.000000)" fill="#6D3F1A">
            <path d="M12.0566372,0 C12.3809787,-1.77635684e-15 12.6851753,0.157303618 12.8726539,0.421971725 L15.195257,3.70084766 C15.4826846,4.10661627 15.4283024,4.66193121 15.0676164,5.00422986 L8.3844277,11.3467166 C7.99856188,11.7129113 7.39354125,11.7129113 7.00767544,11.3467166 L0.311645988,4.99204372 C-0.0434315381,4.65506768 -0.102367125,4.11057811 0.17238278,3.7054295 L2.38767539,0.438739697 C2.57376338,0.164332721 2.88376092,-1.77635684e-15 3.21531473,-1.77635684e-15 L12.0566372,0 Z M11.1432096,4.60485803 C10.8499406,4.38654272 10.4332394,4.41009436 10.166555,4.67594242 L10.166555,4.67594242 L7.68905157,7.14710474 L5.22721686,4.67761119 L5.14321299,4.60486054 C4.84994523,4.38654358 4.43324391,4.41009289 4.16655801,4.67593945 C3.87320352,4.96837067 3.87245505,5.44324381 4.16488627,5.7365983 L4.16488627,5.7365983 L6.80245238,8.38249184 L6.90380537,8.47377427 C7.39402816,8.86941154 8.11389846,8.84016638 8.57022314,8.38526463 L8.57022314,8.38526463 L11.2255481,5.73826707 L11.2982983,5.65426279 C11.5166136,5.3609938 11.493062,4.94429262 11.2272139,4.6776082 L11.2272139,4.6776082 Z" id="形状结合"></path>
        </g>
    </g>
</svg>